<?xml version="1.0" encoding="UTF-8"?>
<svg version="1.1" xmlns="http://www.w3.org/2000/svg" width="391" height="441">
<path d="M0 0 C129.03 0 258.06 0 391 0 C391 145.53 391 291.06 391 441 C261.97 441 132.94 441 0 441 C0 295.47 0 149.94 0 0 Z " fill="#FCFCFB" transform="translate(0,0)"/>
<path d="M0 0 C0.72703125 0.61488281 1.4540625 1.22976562 2.203125 1.86328125 C3.26273437 2.73919922 3.26273437 2.73919922 4.34375 3.6328125 C18.64972752 15.72736983 34.00506242 36.18686111 38.203125 54.86328125 C37.873125 55.85328125 37.543125 56.84328125 37.203125 57.86328125 C36.66945313 56.85910156 36.13578125 55.85492188 35.5859375 54.8203125 C28.92583151 42.50925333 21.49972243 31.46271323 11.203125 21.86328125 C10.44 21.07953125 9.676875 20.29578125 8.890625 19.48828125 C8.00375 18.62203125 7.116875 17.75578125 6.203125 16.86328125 C5.53023438 16.20585938 4.85734375 15.5484375 4.1640625 14.87109375 C-2.05374426 9.01784895 -8.73016792 4.34680251 -16.00878906 -0.05029297 C-17.71979671 -1.08988664 -19.41125643 -2.16145022 -21.1015625 -3.234375 C-40.71730808 -15.21151848 -64.42250128 -20.92821326 -87.1484375 -22.77734375 C-90.796875 -23.13671875 -90.796875 -23.13671875 -92.796875 -24.13671875 C-115.8910492 -25.7231684 -140.22044604 -20.77192107 -160.86083984 -10.10864258 C-162.66187106 -9.20449311 -164.5157663 -8.4078337 -166.37109375 -7.62109375 C-189.00137085 2.18449952 -209.8291356 19.5016032 -224.796875 38.86328125 C-225.7559375 40.07564453 -225.7559375 40.07564453 -226.734375 41.3125 C-228.44270889 43.48105315 -230.12713017 45.66492374 -231.796875 47.86328125 C-232.47363281 48.75273437 -232.47363281 48.75273437 -233.1640625 49.66015625 C-236.49172571 54.16593624 -239.20170399 58.90440042 -241.796875 63.86328125 C-242.0949707 64.43224121 -242.39306641 65.00120117 -242.70019531 65.58740234 C-255.02763568 89.26518287 -262.70042678 114.03075666 -263.796875 140.86328125 C-263.84005859 141.59949707 -263.88324219 142.33571289 -263.92773438 143.09423828 C-265.59541629 173.92822674 -257.74416757 206.99656433 -242.82666016 233.9921875 C-241.76260425 235.92555035 -240.73779729 237.87665104 -239.71484375 239.83203125 C-234.3428746 249.91698196 -227.84900266 258.89001559 -220.796875 267.86328125 C-221.43625 266.72890625 -222.075625 265.59453125 -222.734375 264.42578125 C-223.75686097 262.57252542 -224.77738491 260.71818682 -225.796875 258.86328125 C-226.13460937 258.25709961 -226.47234375 257.65091797 -226.8203125 257.02636719 C-231.80989329 248.04246773 -236.11069534 239.12255482 -239.52734375 229.42578125 C-240.56035028 226.527006 -241.68981173 223.74192588 -242.921875 220.92578125 C-245.52768835 214.50315416 -246.84474634 207.70449608 -248.33105469 200.95556641 C-249.01677833 197.87556031 -249.75496217 194.80818866 -250.484375 191.73828125 C-252.17215539 184.62885994 -252.94607296 177.80791507 -252.89453125 170.5234375 C-252.8931163 169.75648056 -252.89170135 168.98952362 -252.89024353 168.19932556 C-252.88469266 165.77476935 -252.87214963 163.35030906 -252.859375 160.92578125 C-252.85435364 159.27148572 -252.84979185 157.61718872 -252.84570312 155.96289062 C-252.83473938 151.92965113 -252.81750924 147.89648239 -252.796875 143.86328125 C-247.34012213 149.16078124 -244.55069349 156.12479288 -241.88232422 163.14404297 C-240.83806854 165.7600843 -239.6757377 168.27785133 -238.46484375 170.8203125 C-235.50895984 177.28095272 -233.29574073 183.92300258 -231.109375 190.67578125 C-230.71943359 191.86365234 -230.32949219 193.05152344 -229.92773438 194.27539062 C-229.20591617 196.4753938 -228.48659015 198.67621762 -227.77075195 200.87817383 C-226.79221683 203.87755937 -225.79757455 206.87122586 -224.796875 209.86328125 C-224.86471191 209.31865234 -224.93254883 208.77402344 -225.00244141 208.21289062 C-225.70361186 201.72927479 -225.91468506 195.28406632 -226.0078125 188.76953125 C-226.0220929 187.85139648 -226.03637329 186.93326172 -226.05108643 185.98730469 C-226.108829 182.14506919 -226.16333958 178.3029676 -226.19824219 174.46044922 C-225.50963681 156.72097652 -225.50963681 156.72097652 -232.796875 141.42578125 C-238.030438 135.98391723 -238.91388302 128.0404815 -239.109375 120.73828125 C-238.95284393 115.66337926 -237.97118722 110.7911986 -236.796875 105.86328125 C-235.146875 105.53328125 -233.496875 105.20328125 -231.796875 104.86328125 C-226.14338952 111.12249732 -223.63639732 119.05459486 -220.796875 126.86328125 C-219.31538118 118.63276004 -218.73828449 108.71098614 -222.359375 100.98828125 C-225.72384811 93.24333076 -224.74648875 82.57458268 -222.109375 74.73828125 C-220.26513567 70.40235688 -218.21876451 67.10968924 -214.796875 63.86328125 C-213.806875 63.86328125 -212.816875 63.86328125 -211.796875 63.86328125 C-206.09824702 75.36229842 -206.84780278 85.83817847 -210.796875 97.86328125 C-211.74056183 99.89046037 -212.71531997 101.90618168 -213.796875 103.86328125 C-213.796875 104.52328125 -213.796875 105.18328125 -213.796875 105.86328125 C-213.53471191 105.24283936 -213.27254883 104.62239746 -213.00244141 103.9831543 C-211.81209019 101.17100877 -210.61703951 98.3608843 -209.421875 95.55078125 C-209.009375 94.57431641 -208.596875 93.59785156 -208.171875 92.59179688 C-207.77226562 91.65400391 -207.37265625 90.71621094 -206.9609375 89.75 C-206.59436035 88.88592529 -206.2277832 88.02185059 -205.85009766 87.1315918 C-204.796875 84.86328125 -204.796875 84.86328125 -202.796875 81.86328125 C-200.52341194 74.81835251 -200.77434899 67.66197046 -200.921875 60.36328125 C-201.08231668 48.13227704 -198.57536784 40.54691931 -191.08984375 30.76171875 C-188.08277309 28.27204866 -185.62828885 28.13134157 -181.796875 27.86328125 C-180.83010639 40.40058209 -182.55787147 48.92910924 -188.796875 59.86328125 C-182.85874538 52.71446501 -177.95697783 46.16268093 -174.734375 37.32421875 C-173.796875 34.86328125 -173.796875 34.86328125 -171.796875 31.86328125 C-171.21733621 28.6479142 -170.84505821 25.43110404 -170.45703125 22.1875 C-168.6733478 13.20575673 -161.86410941 5.66638269 -154.671875 0.23828125 C-151.18658441 -1.42859686 -148.61397207 -1.44208652 -144.796875 -1.13671875 C-144.796875 8.71761455 -149.62631426 17.31791522 -156.1875 24.46875 C-161.66278666 29.44545923 -161.66278666 29.44545923 -164.875 30.62890625 C-167.96274873 32.61209446 -168.54242502 35.4762663 -169.796875 38.86328125 C-168.63671875 37.88488281 -168.63671875 37.88488281 -167.453125 36.88671875 C-166.40132981 36.00356297 -165.34922489 35.12077598 -164.296875 34.23828125 C-163.74805664 33.77679688 -163.19923828 33.3153125 -162.63378906 32.83984375 C-159.68355326 30.37583449 -156.71004196 28.05219278 -153.546875 25.86328125 C-146.24299189 20.51116649 -140.63207512 12.3517664 -137.171875 4.05078125 C-134.08399765 -2.21998506 -128.56809946 -6.16607024 -122.984375 -10.13671875 C-117.98136586 -11.70629025 -112.99639014 -11.36388203 -107.796875 -11.13671875 C-107.96214474 -4.69119883 -111.500614 -0.59554098 -115.796875 3.86328125 C-121.57530798 8.60824644 -127.12464778 11.97688158 -134.421875 13.73828125 C-137.96901537 14.92066137 -138.99284701 15.67970244 -140.796875 18.86328125 C-138.7355227 18.16451776 -136.67425096 17.46551612 -134.61328125 16.765625 C-132.67799466 16.14558172 -130.72541554 15.57783452 -128.76171875 15.0546875 C-117.68416719 12.02619527 -108.88315005 7.09780467 -100.796875 -1.13671875 C-94.61476305 -5.74618819 -87.31979127 -6.3749597 -79.796875 -6.13671875 C-76.57010037 -5.58767202 -73.53664572 -4.97874907 -70.796875 -3.13671875 C-70.0625 -1.0234375 -70.0625 -1.0234375 -69.796875 0.86328125 C-74.40987945 5.1214392 -78.97775059 7.54856287 -84.796875 9.86328125 C-84.796875 10.19328125 -84.796875 10.52328125 -84.796875 10.86328125 C-81.92273779 11.20646181 -79.04829166 11.54010978 -76.171875 11.86328125 C-75.30973389 11.96084717 -74.44759277 12.05841309 -73.55932617 12.15893555 C-68.33794843 12.71122923 -63.35292105 12.88689246 -58.109375 12.67578125 C-50.78381697 12.57344517 -47.13384672 14.64137753 -41.984375 19.61328125 C-37.796875 24.11096644 -37.796875 24.11096644 -37.796875 28.86328125 C-42.25299613 31.09134182 -47.96338111 30.36272379 -52.796875 29.86328125 C-56.16628613 28.63714911 -58.9104259 26.97237767 -61.796875 24.86328125 C-62.76625 24.16203125 -63.735625 23.46078125 -64.734375 22.73828125 C-66.796875 20.86328125 -66.796875 20.86328125 -68.796875 17.86328125 C-70.116875 17.86328125 -71.436875 17.86328125 -72.796875 17.86328125 C-72.27738281 18.22679687 -71.75789062 18.5903125 -71.22265625 18.96484375 C-66.71424396 22.21490067 -62.98317824 25.28297034 -59.796875 29.86328125 C-59.796875 31.18328125 -59.796875 32.50328125 -59.796875 33.86328125 C-69.56729425 34.71425325 -76.60195702 33.40616289 -84.796875 27.86328125 C-87.01122871 25.92339575 -88.21936977 24.39855752 -89.796875 21.86328125 C-89.796875 20.87328125 -89.796875 19.88328125 -89.796875 18.86328125 C-97.9934721 16.01229095 -105.45549214 16.3138994 -113.8125 18.41796875 C-116.17494531 18.9481238 -118.38436073 19.01892733 -120.796875 18.86328125 C-120.796875 19.52328125 -120.796875 20.18328125 -120.796875 20.86328125 C-119.95125 20.70214844 -119.105625 20.54101562 -118.234375 20.375 C-114.7090482 19.85020703 -111.3596023 19.69531375 -107.796875 19.67578125 C-106.0334375 19.65451172 -106.0334375 19.65451172 -104.234375 19.6328125 C-98.86669854 19.99269081 -94.85786521 21.46499338 -90.609375 24.73828125 C-89.95582031 25.23070312 -89.30226562 25.723125 -88.62890625 26.23046875 C-86.67959601 27.96780708 -85.21012224 29.66833163 -83.796875 31.86328125 C-83.984375 34.05078125 -83.984375 34.05078125 -84.796875 35.86328125 C-90.08107199 38.50537975 -98.03075819 37.3748255 -103.546875 35.73828125 C-108.15228421 33.97343465 -112.27052537 31.31766457 -115.796875 27.86328125 C-116.126875 26.87328125 -116.456875 25.88328125 -116.796875 24.86328125 C-126.67879001 23.63865129 -133.36384889 22.90140828 -141.796875 28.86328125 C-144.09865299 29.96693226 -146.42901346 30.90606063 -148.796875 31.86328125 C-145.69726695 32.00744907 -143.360457 32.10699238 -140.484375 30.86328125 C-132.5868812 27.92467891 -125.16389313 30.52189377 -117.796875 33.86328125 C-114.28663013 35.74426904 -112.04903404 37.48504269 -109.796875 40.86328125 C-109.796875 42.18328125 -109.796875 43.50328125 -109.796875 44.86328125 C-115.36811388 48.43458822 -123.41589288 47.51427194 -129.796875 46.86328125 C-134.97926347 45.65427511 -138.68762587 44.24984266 -142.046875 40.05078125 C-146.21333911 36.73654843 -149.67752666 37.02555576 -154.86328125 37.546875 C-162.45681313 39.46203237 -169.08099506 46.87742709 -173.796875 52.86328125 C-174.291875 54.34828125 -174.291875 54.34828125 -174.796875 55.86328125 C-174.06082031 55.30898437 -173.32476562 54.7546875 -172.56640625 54.18359375 C-171.59058594 53.45914063 -170.61476563 52.7346875 -169.609375 51.98828125 C-168.64644531 51.26898438 -167.68351562 50.5496875 -166.69140625 49.80859375 C-159.96494838 45.28797834 -153.74629363 45.077917 -145.796875 45.86328125 C-141.79203335 47.0512618 -138.68876107 48.28155449 -136.58984375 52.00390625 C-136.32816406 52.6175 -136.06648437 53.23109375 -135.796875 53.86328125 C-143.53776479 60.85505268 -150.48028298 62.31427825 -160.7578125 62.1015625 C-163.796875 61.86328125 -163.796875 61.86328125 -166.796875 60.86328125 C-171.9312554 60.04879119 -175.92038412 60.493386 -180.421875 63.17578125 C-188.48431816 69.14536024 -192.62438416 78.99914172 -196.796875 87.86328125 C-192.86098902 85.10913771 -189.38577699 82.62265487 -186.421875 78.80078125 C-181.97252414 73.82174576 -174.8259292 70.16560566 -168.08984375 69.66015625 C-162.14628435 69.57044215 -157.81084093 69.5206373 -152.796875 72.86328125 C-153.00805096 76.55886055 -153.69632143 77.76272768 -156.359375 80.42578125 C-164.83698259 86.87525305 -174.17717234 89.66161554 -184.796875 88.86328125 C-186.281875 88.36828125 -186.281875 88.36828125 -187.796875 87.86328125 C-190.01251043 88.92359284 -190.01251043 88.92359284 -192.234375 90.55078125 C-193.0284375 91.10378906 -193.8225 91.65679687 -194.640625 92.2265625 C-196.8957691 93.93834761 -198.83663422 95.82463084 -200.796875 97.86328125 C-201.456875 97.86328125 -202.116875 97.86328125 -202.796875 97.86328125 C-202.96703125 98.45753906 -203.1371875 99.05179688 -203.3125 99.6640625 C-204.68753673 104.36698067 -206.1830102 108.96880905 -207.921875 113.55078125 C-209.46852105 117.70665461 -210.40487954 121.45333238 -210.796875 125.86328125 C-208.01459525 122.88912013 -206.52415573 120.34956406 -205.421875 116.48828125 C-202.68513944 107.83389235 -196.74592853 103.52550088 -188.98828125 99.17578125 C-184.19165245 97.20311629 -179.88527736 97.23223923 -174.796875 97.86328125 C-173.70903165 101.17724111 -173.72424956 101.6990846 -175.234375 105.11328125 C-180.41935191 113.34928199 -187.78131869 119.23950409 -196.796875 122.86328125 C-198.55064453 122.96962891 -198.55064453 122.96962891 -200.33984375 123.078125 C-204.038226 123.91809656 -204.3639716 124.06909553 -206.34375 126.99609375 C-207.10267596 128.31297573 -207.83654953 129.64456086 -208.546875 130.98828125 C-208.91941406 131.64054688 -209.29195313 132.2928125 -209.67578125 132.96484375 C-210.76707387 134.90834722 -211.79003283 136.87491989 -212.796875 138.86328125 C-213.33828125 139.91257813 -213.8796875 140.961875 -214.4375 142.04296875 C-218.72381201 152.57062319 -218.15765573 164.74683064 -218.109375 175.92578125 C-218.10921387 176.68976227 -218.10905273 177.45374329 -218.10888672 178.24087524 C-218.09117403 190.32899312 -217.27250957 202.00086561 -214.796875 213.86328125 C-214.77109375 212.84492188 -214.7453125 211.8265625 -214.71875 210.77734375 C-214.32409346 199.76774189 -212.61805378 189.5022705 -209.796875 178.86328125 C-209.61640625 178.17347168 -209.4359375 177.48366211 -209.25 176.77294922 C-201.01225018 146.06526572 -181.31082767 120.98199975 -154.796875 103.86328125 C-153.90871094 103.28578125 -153.02054688 102.70828125 -152.10546875 102.11328125 C-146.55572041 98.63926038 -140.936751 96.10526627 -134.796875 93.86328125 C-133.86359375 93.50105469 -132.9303125 93.13882813 -131.96875 92.765625 C-126.88137748 90.82658547 -122.22684006 89.34594481 -116.796875 88.86328125 C-119.40457083 91.74973077 -122.43082413 93.67309871 -125.671875 95.80078125 C-132.46650383 100.39247149 -138.38287676 105.67238718 -144.2578125 111.37548828 C-145.71333014 112.78251945 -147.19198041 114.165506 -148.671875 115.546875 C-156.08258176 122.63125802 -162.01251238 130.42853494 -167.796875 138.86328125 C-168.786875 140.30380859 -168.786875 140.30380859 -169.796875 141.7734375 C-183.73826896 162.90336272 -189.67170037 184.96169461 -192.796875 209.86328125 C-192.9007251 210.59957764 -193.0045752 211.33587402 -193.11157227 212.09448242 C-195.55989173 229.74541024 -193.62320413 248.29070576 -189.859375 265.61328125 C-189.70178711 266.33974854 -189.54419922 267.06621582 -189.38183594 267.81469727 C-188.30881451 272.4287969 -186.77475039 276.55816217 -184.796875 280.86328125 C-184.93983391 279.4671506 -185.08639058 278.07138817 -185.234375 276.67578125 C-185.35619141 275.50982422 -185.35619141 275.50982422 -185.48046875 274.3203125 C-185.76014339 271.87394435 -185.76014339 271.87394435 -186.29956055 269.5402832 C-190.2670149 248.18380948 -185.65078472 226.53769102 -173.93115234 208.50634766 C-171.51880664 205.01192523 -168.83129307 201.82940052 -165.796875 198.86328125 C-164.60933449 202.3922137 -164.97331541 205.03788649 -165.609375 208.67578125 C-165.79886719 209.8359375 -165.98835938 210.99609375 -166.18359375 212.19140625 C-166.58200969 214.57682652 -166.98044603 216.96224338 -167.37890625 219.34765625 C-171.02979353 243.40674078 -169.93522333 269.20142494 -160.796875 291.86328125 C-160.45527344 292.76175781 -160.11367187 293.66023438 -159.76171875 294.5859375 C-153.85532287 309.08345467 -143.7168853 321.55957214 -129.796875 328.86328125 C-125.83852627 330.24822409 -121.92679978 331.16339204 -117.796875 331.86328125 C-116.89453125 332.03859375 -115.9921875 332.21390625 -115.0625 332.39453125 C-110.69029615 333.02212032 -106.33148231 333.22323152 -101.921875 333.42578125 C-101.04273438 333.46896484 -100.16359375 333.51214844 -99.2578125 333.55664062 C-97.10431703 333.66197464 -94.95061436 333.76305774 -92.796875 333.86328125 C-92.796875 334.52328125 -92.796875 335.18328125 -92.796875 335.86328125 C-93.456875 335.86328125 -94.116875 335.86328125 -94.796875 335.86328125 C-95.07273438 336.57871094 -95.34859375 337.29414063 -95.6328125 338.03125 C-96.77936022 340.8206698 -98.05914615 343.48618483 -99.421875 346.17578125 C-99.86789063 347.05878906 -100.31390625 347.94179688 -100.7734375 348.8515625 C-101.28003906 349.84736328 -101.28003906 349.84736328 -101.796875 350.86328125 C-149.26436255 350.71987494 -193.02390768 324.89577146 -226.171875 292.73828125 C-230.70901687 288.05446454 -234.75529113 282.97410279 -238.796875 277.86328125 C-240.00537109 276.3628125 -240.00537109 276.3628125 -241.23828125 274.83203125 C-245.99499464 268.85629347 -250.33947308 262.69520848 -254.421875 256.23828125 C-255.07917603 255.20731323 -255.07917603 255.20731323 -255.74975586 254.15551758 C-258.796875 249.23381516 -258.796875 249.23381516 -258.796875 245.86328125 C-259.456875 245.86328125 -260.116875 245.86328125 -260.796875 245.86328125 C-265.21148921 236.66510812 -269.29365062 227.45570637 -272.796875 217.86328125 C-273.10101318 217.08992432 -273.40515137 216.31656738 -273.71850586 215.51977539 C-276.57271153 208.0803254 -278.37037464 200.59409728 -279.984375 192.80078125 C-280.24412109 191.59873047 -280.50386719 190.39667969 -280.77148438 189.15820312 C-285.58087715 166.37883112 -284.91631457 142.6949946 -282.046875 119.67578125 C-281.81158081 117.73807861 -281.81158081 117.73807861 -281.5715332 115.76123047 C-280.44718789 107.47073414 -278.48297986 99.77793598 -275.796875 91.86328125 C-275.54776367 91.08750732 -275.29865234 90.3117334 -275.04199219 89.51245117 C-271.58678434 78.76361828 -267.12516999 68.80393792 -261.796875 58.86328125 C-261.19230469 57.703125 -260.58773437 56.54296875 -259.96484375 55.34765625 C-251.76638929 40.22798024 -240.71259855 27.17447615 -228.796875 14.86328125 C-228.07886719 14.1053125 -227.36085937 13.34734375 -226.62109375 12.56640625 C-168.21011605 -47.8345246 -64.31575771 -53.13503824 0 0 Z " fill="#499129" transform="translate(305.796875,65.13671875)"/>
<path d="M0 0 C2.41332442 1.96762036 3.64206159 3.4784702 4.734375 6.4140625 C5.27018092 12.0400247 4.92343393 15.57549033 1.734375 20.4140625 C-2.58141447 24.4140625 -2.58141447 24.4140625 -5.265625 24.4140625 C-5.265625 30.3540625 -5.265625 36.2940625 -5.265625 42.4140625 C-3.05875 42.3315625 -0.851875 42.2490625 1.421875 42.1640625 C22.63851836 41.95874734 41.97374028 47.98063912 57.734375 62.4140625 C58.48976563 63.06632812 59.24515625 63.71859375 60.0234375 64.390625 C66.86360598 70.66665587 75.20805987 80.94613893 76.734375 90.4140625 C77.5696875 90.52621094 77.5696875 90.52621094 78.421875 90.640625 C86.14751583 91.97173204 91.17121025 95.05732005 95.9296875 101.2890625 C98.86441623 106.70257742 98.35237273 112.72954306 98.296875 118.7265625 C98.32072266 119.89896484 98.34457031 121.07136719 98.36914062 122.27929688 C98.35611877 130.05334465 97.22567521 135.96396968 92.734375 142.4140625 C90.48828125 144.6328125 90.48828125 144.6328125 88.296875 145.9140625 C87.57628906 146.3575 86.85570312 146.8009375 86.11328125 147.2578125 C83.734375 148.4140625 83.734375 148.4140625 80.6953125 149.09765625 C76.51682683 150.95537349 75.50606626 153.981809 73.796875 157.9765625 C70.77835461 164.4895255 67.58225937 170.05352829 62.734375 175.4140625 C61.93966797 176.32865234 61.93966797 176.32865234 61.12890625 177.26171875 C52.11485318 187.0037476 37.9216216 194.64929486 24.734375 196.4140625 C22.42572849 196.4870327 20.1151599 196.50900205 17.80541992 196.49243164 C16.42547176 196.48631838 15.04552277 196.48039134 13.66557312 196.47462463 C12.94126287 196.46995241 12.21695263 196.46528019 11.47069359 196.46046638 C7.58005277 196.44106771 3.68948403 196.45653312 -0.20117188 196.46679688 C-5.12720528 196.47897232 -10.05237528 196.48105774 -14.97827148 196.43823242 C-40.2932314 195.88934182 -40.2932314 195.88934182 -63.265625 205.4140625 C-64.9608022 206.27258043 -66.66738962 207.10944495 -68.390625 207.91015625 C-69.68331552 208.55524403 -70.9750611 209.20223066 -72.265625 209.8515625 C-73.28269531 210.35719727 -73.28269531 210.35719727 -74.3203125 210.87304688 C-77.50355825 212.33138498 -77.50355825 212.33138498 -80.265625 214.4140625 C-87.37026558 215.11287961 -87.37026558 215.11287961 -90.828125 212.4140625 C-93.38391469 207.08024054 -91.66642286 202.39851354 -89.828125 197.1015625 C-89.56386719 196.35519531 -89.29960937 195.60882813 -89.02734375 194.83984375 C-87.65141592 190.45804281 -86.96761214 185.94507038 -86.265625 181.4140625 C-85.86150391 179.7125 -85.86150391 179.7125 -85.44921875 177.9765625 C-85.21794008 173.48877215 -86.76632163 171.38602546 -89.453125 168.0390625 C-92.32123138 164.25160702 -94.75543154 160.72516139 -96.390625 156.2265625 C-97.1687044 154.10247329 -97.1687044 154.10247329 -98.265625 152.4140625 C-101.63178015 151.07131378 -101.63178015 151.07131378 -105.265625 150.4140625 C-111.4624166 146.44811588 -114.74695644 140.58554289 -116.81201172 133.5534668 C-118.82387418 124.06479579 -118.88298897 110.93102234 -114.46484375 102.21875 C-111.30670858 97.46611662 -107.23953042 94.1547859 -102.265625 91.4140625 C-98.890625 91.1640625 -98.890625 91.1640625 -96.265625 91.4140625 C-96.1728125 90.55296875 -96.08 89.691875 -95.984375 88.8046875 C-93.066482 75.03984443 -79.49400305 61.9046516 -68.265625 54.4140625 C-59.06154321 48.91815403 -49.91351444 45.11155212 -39.265625 43.4140625 C-38.1828125 43.2284375 -37.1 43.0428125 -35.984375 42.8515625 C-31.57082685 42.33232154 -27.26540386 42.30544712 -22.828125 42.3515625 C-18.5896875 42.3825 -18.5896875 42.3825 -14.265625 42.4140625 C-14.265625 36.4740625 -14.265625 30.5340625 -14.265625 24.4140625 C-15.585625 24.0840625 -16.905625 23.7540625 -18.265625 23.4140625 C-23.07284031 18.15966437 -24.79076925 15.12015959 -24.75 8.09765625 C-23.90564237 3.4196426 -20.94754027 0.2802689 -17.265625 -2.5859375 C-10.69823852 -4.82137482 -5.58889621 -3.87756753 0 0 Z " fill="#F8FAF9" transform="translate(264.265625,118.5859375)"/>
<path d="M0 0 C0.66 0 1.32 0 2 0 C2.45974257 16.57627374 0.14191989 30.66906783 -6 46 C-6.391875 46.98742187 -6.78375 47.97484375 -7.1875 48.9921875 C-12.86002534 62.2674725 -20.50117841 73.42528921 -30.64990234 83.63085938 C-31.80958264 84.80689682 -32.93395542 86.01756666 -34.05078125 87.234375 C-55.01246774 109.67729415 -87.09009242 120.30442182 -116.44580078 125.54345703 C-118.55046087 125.91964843 -120.64926049 126.32847628 -122.74609375 126.74609375 C-134.34230864 128.8041735 -146.26734511 128.17965196 -158 128 C-148.30237169 104.74089408 -127.39577208 93.07043496 -105.13525391 83.85498047 C-100.8711339 82.14757728 -96.54571545 80.63238285 -92.20703125 79.125 C-70.60186424 71.54608636 -51.77758976 60.60156447 -36 44 C-37.010625 44.78375 -38.02125 45.5675 -39.0625 46.375 C-43.14937961 49.43286171 -47.33385337 52.33080035 -51.5625 55.1875 C-52.18713135 55.61530762 -52.8117627 56.04311523 -53.45532227 56.48388672 C-59.36584999 60.44284704 -65.67856962 62.91776306 -72.3125 65.4375 C-77.23637542 67.31163943 -82.11964781 69.25958621 -86.9765625 71.30078125 C-89 72 -89 72 -92 72 C-91.46323088 66.9738891 -89.05581499 63.37760591 -86.4375 59.1875 C-85.80038086 58.14819336 -85.80038086 58.14819336 -85.15039062 57.08789062 C-84.10690544 55.38783049 -83.05434704 53.69334524 -82 52 C-89.37734218 57.70889695 -96.31414894 65.06655125 -100.1953125 73.640625 C-103.01116561 77.32195678 -106.77901305 78.14129595 -111.0625 79.625 C-125.90966332 85.18864583 -138.58245975 92.87031374 -149.91015625 103.98046875 C-152 106 -152 106 -153 106 C-154.55438159 91.6306057 -147.40493815 73.88197522 -138.52734375 62.77734375 C-119.63334278 40.62301142 -93.04857921 32.82670652 -65.25561523 28.48974609 C-56.84008185 27.12057242 -49.02377372 24.69148214 -41.04345703 21.73779297 C-38.08134431 20.6683181 -35.08490513 19.70881325 -32.0859375 18.74829102 C-29.30117237 17.74930867 -26.72408585 16.45284579 -24.1171875 15.0625 C-22 14 -22 14 -18.71875 12.6953125 C-14.61721667 10.9576525 -11.19199289 8.51411841 -7.625 5.875 C-6.99722656 5.41996094 -6.36945313 4.96492188 -5.72265625 4.49609375 C-2.74008184 2.39452543 -2.74008184 2.39452543 0 0 Z " fill="#358A2D" transform="translate(370,288)"/>
<path d="M0 0 C1.53163263 -0.00389488 3.0632642 -0.00823116 4.59489441 -0.01298523 C7.79645293 -0.02041941 10.99790113 -0.02017709 14.19946289 -0.01489258 C18.2742927 -0.00910865 22.34866638 -0.02601632 26.42342091 -0.04923725 C29.58500243 -0.06407042 32.74647661 -0.06483325 35.90808678 -0.06172752 C37.40898223 -0.06223617 38.90988442 -0.06738667 40.41074562 -0.07753944 C52.8486869 -0.15135009 63.32729259 0.58828148 73 9 C81.53977216 17.56886849 85.5983848 26.94434942 85.76147461 39.03808594 C85.75124268 39.90852539 85.74101074 40.77896484 85.73046875 41.67578125 C85.72217041 42.59262695 85.71387207 43.50947266 85.70532227 44.45410156 C85.38824265 57.21401708 81.43859314 65.92412051 72.6015625 75.046875 C65.23108576 81.90432552 56.68576622 84.39225009 46.78125 84.4777832 C45.48219727 84.49061844 44.18314453 84.50345367 42.84472656 84.51667786 C41.43164456 84.5248505 40.01855817 84.53229322 38.60546875 84.5390625 C37.88709839 84.54313803 37.16872803 84.54721355 36.42858887 84.55141258 C32.62052708 84.57223448 28.81250082 84.58654864 25.00439453 84.59594727 C21.10558942 84.60695827 17.20736344 84.64130674 13.3087616 84.68111897 C10.2817899 84.70749921 7.25495124 84.7156582 4.22787476 84.71922874 C2.79279706 84.72404566 1.35772329 84.73551643 -0.07723999 84.75426674 C-10.6380333 84.88360255 -20.92545004 84.08634037 -29.98828125 78.15234375 C-30.72046875 77.41757812 -31.45265625 76.6828125 -32.20703125 75.92578125 C-33.00367188 75.13171875 -33.8003125 74.33765625 -34.62109375 73.51953125 C-35.30945313 72.78734375 -35.9978125 72.05515625 -36.70703125 71.30078125 C-37.49207031 70.5428125 -37.49207031 70.5428125 -38.29296875 69.76953125 C-45.36264198 62.39993249 -46.35643663 51.98723031 -46.20703125 42.30078125 C-46.2225 41.29789063 -46.23796875 40.295 -46.25390625 39.26171875 C-46.19171711 27.2281211 -42.15763921 17.83850888 -33.70703125 9.30078125 C-23.19713288 0.29229694 -13.29274653 -0.01413157 0 0 Z " fill="#035331" transform="translate(233.70703125,198.69921875)"/>
<path d="M0 0 C-0.16526974 6.44551992 -3.703739 10.54117777 -8 15 C-13.77843298 19.74496519 -19.32777278 23.11360033 -26.625 24.875 C-30.17214037 26.05738012 -31.19597201 26.81642119 -33 30 C-30.9386477 29.30123651 -28.87737596 28.60223487 -26.81640625 27.90234375 C-24.88111966 27.28230047 -22.92854054 26.71455327 -20.96484375 26.19140625 C-9.88729219 23.16291402 -1.08627505 18.23452342 7 10 C13.18211195 5.39053056 20.47708373 4.76175905 28 5 C31.22677463 5.54904673 34.26022928 6.15796968 37 8 C37.734375 10.11328125 37.734375 10.11328125 38 12 C33.38699555 16.25815795 28.81912441 18.68528162 23 21 C23 21.33 23 21.66 23 22 C25.87413721 22.34318056 28.74858334 22.67682853 31.625 23 C32.48714111 23.09756592 33.34928223 23.19513184 34.23754883 23.2956543 C39.45892657 23.84794798 44.44395395 24.02361121 49.6875 23.8125 C57.01305803 23.71016392 60.66302828 25.77809628 65.8125 30.75 C70 35.24768519 70 35.24768519 70 40 C65.54387887 42.22806057 59.83349389 41.49944254 55 41 C51.63058887 39.77386786 48.8864491 38.10909642 46 36 C45.030625 35.29875 44.06125 34.5975 43.0625 33.875 C41 32 41 32 39 29 C37.68 29 36.36 29 35 29 C35.51949219 29.36351563 36.03898438 29.72703125 36.57421875 30.1015625 C41.08263104 33.35161942 44.81369676 36.41968909 48 41 C48 42.32 48 43.64 48 45 C38.22958075 45.850972 31.19491798 44.54288164 23 39 C20.78564629 37.0601145 19.57750523 35.53527627 18 33 C18 32.01 18 31.02 18 30 C9.8034029 27.1490097 2.34138286 27.45061815 -6.015625 29.5546875 C-8.37807031 30.08484255 -10.58748573 30.15564608 -13 30 C-13 30.66 -13 31.32 -13 32 C-12.154375 31.83886719 -11.30875 31.67773438 -10.4375 31.51171875 C-6.9121732 30.98692578 -3.5627273 30.8320325 0 30.8125 C1.7634375 30.79123047 1.7634375 30.79123047 3.5625 30.76953125 C8.93017646 31.12940956 12.93900979 32.60171213 17.1875 35.875 C17.84105469 36.36742187 18.49460938 36.85984375 19.16796875 37.3671875 C21.11727899 39.10452583 22.58675276 40.80505038 24 43 C23.8125 45.1875 23.8125 45.1875 23 47 C17.71580301 49.6420985 9.76611681 48.51154425 4.25 46.875 C-0.35540921 45.1101534 -4.47365037 42.45438332 -8 39 C-8.33 38.01 -8.66 37.02 -9 36 C-18.88191501 34.77537004 -25.56697389 34.03812703 -34 40 C-36.30177799 41.10365101 -38.63213846 42.04277938 -41 43 C-37.90039195 43.14416782 -35.563582 43.24371113 -32.6875 42 C-24.7900062 39.06139766 -17.36701813 41.65861252 -10 45 C-6.48975513 46.88098779 -4.25215904 48.62176144 -2 52 C-2 53.32 -2 54.64 -2 56 C-7.57123888 59.57130697 -15.61901788 58.65099069 -22 58 C-27.18238847 56.79099386 -30.89075087 55.38656141 -34.25 51.1875 C-38.41646411 47.87326718 -41.88065166 48.16227451 -47.06640625 48.68359375 C-54.65993813 50.59875112 -61.28412006 58.01414584 -66 64 C-66.495 65.485 -66.495 65.485 -67 67 C-66.26394531 66.44570312 -65.52789062 65.89140625 -64.76953125 65.3203125 C-63.79371094 64.59585938 -62.81789063 63.87140625 -61.8125 63.125 C-60.84957031 62.40570313 -59.88664062 61.68640625 -58.89453125 60.9453125 C-52.16807338 56.42469709 -45.94941863 56.21463575 -38 57 C-33.99515835 58.18798055 -30.89188607 59.41827324 -28.79296875 63.140625 C-28.53128906 63.75421875 -28.26960938 64.3678125 -28 65 C-35.74088979 71.99177143 -42.68340798 73.450997 -52.9609375 73.23828125 C-56 73 -56 73 -59 72 C-64.1343804 71.18550994 -68.12350912 71.63010475 -72.625 74.3125 C-80.68744316 80.28207899 -84.82750916 90.13586047 -89 99 C-85.06411402 96.24585646 -81.58890199 93.75937362 -78.625 89.9375 C-74.17564914 84.95846451 -67.0290542 81.30232441 -60.29296875 80.796875 C-54.34940935 80.7071609 -50.01396593 80.65735605 -45 84 C-45.21117596 87.6955793 -45.89944643 88.89944643 -48.5625 91.5625 C-57.04010759 98.0119718 -66.38029734 100.79833429 -77 100 C-77.99 99.67 -78.98 99.34 -80 99 C-82.21563543 100.06031159 -82.21563543 100.06031159 -84.4375 101.6875 C-85.2315625 102.24050781 -86.025625 102.79351562 -86.84375 103.36328125 C-89.0988941 105.07506636 -91.03975922 106.96134959 -93 109 C-93.66 109 -94.32 109 -95 109 C-95.17015625 109.59425781 -95.3403125 110.18851562 -95.515625 110.80078125 C-96.89066173 115.50369942 -98.3861352 120.1055278 -100.125 124.6875 C-101.67164605 128.84337336 -102.60800454 132.59005113 -103 137 C-100.21772025 134.02583888 -98.72728073 131.48628281 -97.625 127.625 C-94.88826444 118.9706111 -88.94905353 114.66221963 -81.19140625 110.3125 C-76.39477745 108.33983504 -72.08840236 108.36895798 -67 109 C-65.91215665 112.31395986 -65.92737456 112.83580335 -67.4375 116.25 C-72.62247691 124.48600074 -79.98444369 130.37622284 -89 134 C-90.16917969 134.07089844 -91.33835938 134.14179688 -92.54296875 134.21484375 C-96.241351 135.05481531 -96.5670966 135.20581428 -98.546875 138.1328125 C-99.30580096 139.44969448 -100.03967453 140.78127961 -100.75 142.125 C-101.12253906 142.77726563 -101.49507812 143.42953125 -101.87890625 144.1015625 C-102.97019887 146.04506597 -103.99315783 148.01163864 -105 150 C-105.54140625 151.04929688 -106.0828125 152.09859375 -106.640625 153.1796875 C-110.92693701 163.70734194 -110.36078073 175.88354939 -110.3125 187.0625 C-110.31233887 187.82648102 -110.31217773 188.59046204 -110.31201172 189.37759399 C-110.29429903 201.46571187 -109.47563457 213.13758436 -107 225 C-106.92652344 223.35064453 -106.92652344 223.35064453 -106.8515625 221.66796875 C-106.44157963 213.30450765 -105.8241854 205.19997905 -104 197 C-103.67 197 -103.34 197 -103 197 C-102.87441981 204.28365078 -102.87441981 204.28365078 -103.48632812 207.77416992 C-103.97826771 210.86352244 -104.20152983 213.82533756 -104.31640625 216.94921875 C-104.35830078 218.04427734 -104.40019531 219.13933594 -104.44335938 220.26757812 C-104.48267578 221.39615234 -104.52199219 222.52472656 -104.5625 223.6875 C-104.60568359 224.82767578 -104.64886719 225.96785156 -104.69335938 227.14257812 C-105.14134522 235.13838548 -105.14134522 235.13838548 -104.125 243.01953125 C-103.94453125 243.79490234 -103.7640625 244.57027344 -103.578125 245.36914062 C-103.19533361 246.98695154 -102.80995216 248.604152 -102.421875 250.22070312 C-101.41347778 254.57481826 -100.76783804 258.49460696 -101 263 C-101.66 263.33 -102.32 263.66 -103 264 C-116.40129337 237.62971304 -118.37748158 211.20825545 -118.53466797 182.14013672 C-118.08697433 166.20411264 -118.08697433 166.20411264 -125 152.5625 C-130.233563 147.12063598 -131.11700802 139.17720025 -131.3125 131.875 C-131.15596893 126.80009801 -130.17431222 121.92791735 -129 117 C-126.525 116.505 -126.525 116.505 -124 116 C-118.34651452 122.25921607 -115.83952232 130.19131361 -113 138 C-111.51850618 129.76947879 -110.94140949 119.84770489 -114.5625 112.125 C-117.92697311 104.38004951 -116.94961375 93.71130143 -114.3125 85.875 C-112.46826067 81.53907563 -110.42188951 78.24640799 -107 75 C-106.01 75 -105.02 75 -104 75 C-98.30137202 86.49901717 -99.05092778 96.97489722 -103 109 C-103.94368683 111.02717912 -104.91844497 113.04290043 -106 115 C-106 115.66 -106 116.32 -106 117 C-105.73783691 116.37955811 -105.47567383 115.75911621 -105.20556641 115.11987305 C-104.01521519 112.30772752 -102.82016451 109.49760305 -101.625 106.6875 C-101.2125 105.71103516 -100.8 104.73457031 -100.375 103.72851562 C-99.97539063 102.79072266 -99.57578125 101.85292969 -99.1640625 100.88671875 C-98.79748535 100.02264404 -98.4309082 99.15856934 -98.05322266 98.26831055 C-97 96 -97 96 -95 93 C-92.72653694 85.95507126 -92.97747399 78.79868921 -93.125 71.5 C-93.28544168 59.26899579 -90.77849284 51.68363806 -83.29296875 41.8984375 C-80.28589809 39.40876741 -77.83141385 39.26806032 -74 39 C-73.03323139 51.53730084 -74.76099647 60.06582799 -81 71 C-75.06187038 63.85118376 -70.16010283 57.29939968 -66.9375 48.4609375 C-66 46 -66 46 -64 43 C-63.42046121 39.78463295 -63.04818321 36.56782279 -62.66015625 33.32421875 C-60.8764728 24.34247548 -54.06723441 16.80310144 -46.875 11.375 C-43.38970941 9.70812189 -40.81709707 9.69463223 -37 10 C-37 19.8543333 -41.82943926 28.45463397 -48.390625 35.60546875 C-53.86591166 40.58217798 -53.86591166 40.58217798 -57.078125 41.765625 C-60.16587373 43.74881321 -60.74555002 46.61298505 -62 50 C-60.83984375 49.02160156 -60.83984375 49.02160156 -59.65625 48.0234375 C-58.60445481 47.14028172 -57.55234989 46.25749473 -56.5 45.375 C-55.95118164 44.91351563 -55.40236328 44.45203125 -54.83691406 43.9765625 C-51.88667826 41.51255324 -48.91316696 39.18891153 -45.75 37 C-38.44611689 31.64788524 -32.83520012 23.48848515 -29.375 15.1875 C-26.28712265 8.91673369 -20.77122446 4.97064851 -15.1875 1 C-10.18449086 -0.5695715 -5.19951514 -0.22716328 0 0 Z " fill="#31802D" transform="translate(198,54)"/>
<path d="M0 0 C2.41332442 1.96762036 3.64206159 3.4784702 4.734375 6.4140625 C5.27018092 12.0400247 4.92343393 15.57549033 1.734375 20.4140625 C-2.58141447 24.4140625 -2.58141447 24.4140625 -5.265625 24.4140625 C-5.265625 30.3540625 -5.265625 36.2940625 -5.265625 42.4140625 C-3.05875 42.3315625 -0.851875 42.2490625 1.421875 42.1640625 C22.63851836 41.95874734 41.97374028 47.98063912 57.734375 62.4140625 C58.48976563 63.06632812 59.24515625 63.71859375 60.0234375 64.390625 C66.86360598 70.66665587 75.20805987 80.94613893 76.734375 90.4140625 C77.5696875 90.52621094 77.5696875 90.52621094 78.421875 90.640625 C86.14751583 91.97173204 91.17121025 95.05732005 95.9296875 101.2890625 C98.86441623 106.70257742 98.35237273 112.72954306 98.296875 118.7265625 C98.32072266 119.89896484 98.34457031 121.07136719 98.36914062 122.27929688 C98.35611877 130.05334465 97.22567521 135.96396968 92.734375 142.4140625 C90.48828125 144.6328125 90.48828125 144.6328125 88.296875 145.9140625 C87.57628906 146.3575 86.85570312 146.8009375 86.11328125 147.2578125 C83.734375 148.4140625 83.734375 148.4140625 80.6953125 149.09765625 C76.51682683 150.95537349 75.50606626 153.981809 73.796875 157.9765625 C70.77835461 164.4895255 67.58225937 170.05352829 62.734375 175.4140625 C61.93966797 176.32865234 61.93966797 176.32865234 61.12890625 177.26171875 C52.11485318 187.0037476 37.9216216 194.64929486 24.734375 196.4140625 C22.42572849 196.4870327 20.1151599 196.50900205 17.80541992 196.49243164 C16.42547176 196.48631838 15.04552277 196.48039134 13.66557312 196.47462463 C12.94126287 196.46995241 12.21695263 196.46528019 11.47069359 196.46046638 C7.58005277 196.44106771 3.68948403 196.45653312 -0.20117188 196.46679688 C-5.12720528 196.47897232 -10.05237528 196.48105774 -14.97827148 196.43823242 C-40.2932314 195.88934182 -40.2932314 195.88934182 -63.265625 205.4140625 C-64.9608022 206.27258043 -66.66738962 207.10944495 -68.390625 207.91015625 C-69.68331552 208.55524403 -70.9750611 209.20223066 -72.265625 209.8515625 C-73.28269531 210.35719727 -73.28269531 210.35719727 -74.3203125 210.87304688 C-77.50355825 212.33138498 -77.50355825 212.33138498 -80.265625 214.4140625 C-87.37026558 215.11287961 -87.37026558 215.11287961 -90.828125 212.4140625 C-93.38391469 207.08024054 -91.66642286 202.39851354 -89.828125 197.1015625 C-89.56386719 196.35519531 -89.29960937 195.60882813 -89.02734375 194.83984375 C-87.65141592 190.45804281 -86.96761214 185.94507038 -86.265625 181.4140625 C-85.86150391 179.7125 -85.86150391 179.7125 -85.44921875 177.9765625 C-85.21794008 173.48877215 -86.76632163 171.38602546 -89.453125 168.0390625 C-92.32123138 164.25160702 -94.75543154 160.72516139 -96.390625 156.2265625 C-97.1687044 154.10247329 -97.1687044 154.10247329 -98.265625 152.4140625 C-101.63178015 151.07131378 -101.63178015 151.07131378 -105.265625 150.4140625 C-111.4624166 146.44811588 -114.74695644 140.58554289 -116.81201172 133.5534668 C-118.82387418 124.06479579 -118.88298897 110.93102234 -114.46484375 102.21875 C-111.30670858 97.46611662 -107.23953042 94.1547859 -102.265625 91.4140625 C-98.890625 91.1640625 -98.890625 91.1640625 -96.265625 91.4140625 C-96.1728125 90.55296875 -96.08 89.691875 -95.984375 88.8046875 C-93.066482 75.03984443 -79.49400305 61.9046516 -68.265625 54.4140625 C-59.06154321 48.91815403 -49.91351444 45.11155212 -39.265625 43.4140625 C-38.1828125 43.2284375 -37.1 43.0428125 -35.984375 42.8515625 C-31.57082685 42.33232154 -27.26540386 42.30544712 -22.828125 42.3515625 C-18.5896875 42.3825 -18.5896875 42.3825 -14.265625 42.4140625 C-14.265625 36.4740625 -14.265625 30.5340625 -14.265625 24.4140625 C-15.585625 24.0840625 -16.905625 23.7540625 -18.265625 23.4140625 C-23.07284031 18.15966437 -24.79076925 15.12015959 -24.75 8.09765625 C-23.90564237 3.4196426 -20.94754027 0.2802689 -17.265625 -2.5859375 C-10.69823852 -4.82137482 -5.58889621 -3.87756753 0 0 Z M-22.62744141 50.45214844 C-44.50386964 50.8985132 -61.97536562 57.56166123 -77.265625 73.4140625 C-90.29100218 87.63019244 -94.44388476 104.0150808 -94.453125 122.7265625 C-94.46537109 124.02013672 -94.47761719 125.31371094 -94.49023438 126.64648438 C-94.50592283 136.87012876 -92.98455695 144.61637367 -88.640625 153.8515625 C-88.12254272 154.96905884 -88.12254272 154.96905884 -87.59399414 156.10913086 C-85.03845585 161.38565735 -82.1129344 165.39474228 -77.63671875 169.26171875 C-75.49348359 172.62617053 -76.48167654 175.71655467 -77.265625 179.4140625 C-77.41572021 180.1464917 -77.56581543 180.8789209 -77.72045898 181.63354492 C-78.21046793 183.92099691 -78.73241211 186.19881615 -79.265625 188.4765625 C-80.50055864 193.77872323 -81.57683386 199.01135703 -82.265625 204.4140625 C-79.20262049 203.04018452 -76.1403231 201.66473681 -73.078125 200.2890625 C-72.23314453 199.91007813 -71.38816406 199.53109375 -70.51757812 199.140625 C-69.65712891 198.75390625 -68.79667969 198.3671875 -67.91015625 197.96875 C-67.04543701 197.58741409 -66.18071777 197.20607819 -65.28979492 196.81318665 C-63.30969961 195.89710083 -61.35702388 194.91863728 -59.44152832 193.87419128 C-51.32742421 189.61900279 -44.25899003 188.59069291 -35.23126793 188.74731255 C-32.9609682 188.78629599 -30.69315829 188.78711927 -28.42256165 188.77955627 C-23.59901121 188.77032603 -18.77645113 188.80884402 -13.953125 188.8515625 C-8.36264555 188.89670807 -2.77304296 188.92103342 2.81761742 188.90699959 C5.02251783 188.91005222 7.22543299 188.94345454 9.43000793 188.97911072 C26.7648152 189.07632507 43.01733136 183.4202155 55.734375 171.4140625 C71.00855388 154.6424151 74.83993931 135.17662988 73.92529297 113.09228516 C72.65086862 95.21449096 64.28009619 80.68505987 51.734375 68.4140625 C51.08855469 67.73601562 50.44273437 67.05796875 49.77734375 66.359375 C33.28203916 50.18750775 8.36705813 50.19296764 -13.14746094 50.30102539 C-16.30775429 50.3370115 -19.46737796 50.40119021 -22.62744141 50.45214844 Z " fill="#0C5B36" transform="translate(264.265625,118.5859375)"/>
<path d="M0 0 C-0.71542969 0.44988281 -1.43085938 0.89976562 -2.16796875 1.36328125 C-21.51531581 13.8527071 -38.13060575 29.90009713 -51 49 C-51.65484375 49.95519531 -52.3096875 50.91039062 -52.984375 51.89453125 C-66.95455323 73.00433596 -72.87580952 95.10625513 -76 120 C-76.1038501 120.73629639 -76.2077002 121.47259277 -76.31469727 122.23120117 C-80.40828787 151.74355579 -75.09721429 187.77229307 -57 212 C-55.45475271 214.41043465 -53.92108921 216.82769315 -52.39453125 219.25 C-51.02535128 221.29424542 -51.02535128 221.29424542 -48 222 C-48.33 223.32 -48.66 224.64 -49 226 C-52.59391114 224.66511872 -55.75490696 223.03977277 -59 221 C-58.34 220.67 -57.68 220.34 -57 220 C-56.34 220.33 -55.68 220.66 -55 221 C-55 220.34 -55 219.68 -55 219 C-55.86625 218.6596875 -55.86625 218.6596875 -56.75 218.3125 C-59.56427613 216.67083893 -61.02737733 214.56440947 -63 212 C-63.66 211.67 -64.32 211.34 -65 211 C-65 210.34 -65 209.68 -65 209 C-65.66 209 -66.32 209 -67 209 C-67.96031375 207.62812322 -68.90972056 206.2474049 -69.8046875 204.83203125 C-71.0797654 202.87774519 -72.45669371 201.040209 -73.875 199.1875 C-79.54192501 191.67156508 -84.2874641 183.98379807 -88.375 175.5 C-88.82488281 174.61441406 -89.27476563 173.72882813 -89.73828125 172.81640625 C-92.21060675 167.6989179 -93.36589709 163.89259583 -93.04199219 158.21923828 C-92.96700852 154.25643868 -94.0051122 150.5170651 -94.9375 146.6875 C-95.11990234 145.90310547 -95.30230469 145.11871094 -95.49023438 144.31054688 C-96.2951287 140.86559915 -97.13848978 137.43119552 -98 134 C-97.67 134 -97.34 134 -97 134 C-96.98018066 133.36723145 -96.96036133 132.73446289 -96.93994141 132.08251953 C-95.64915541 92.65292958 -88.49769787 58.36076443 -58.75244141 29.77441406 C-52.3115592 23.77520431 -45.39090812 18.77193563 -38 14 C-37.11183594 13.4225 -36.22367188 12.845 -35.30859375 12.25 C-29.76158741 8.77769556 -24.14242674 6.22940488 -18 4 C-17.0203125 3.63777344 -16.040625 3.27554688 -15.03125 2.90234375 C-3.86110693 -1.19827456 -3.86110693 -1.19827456 0 0 Z " fill="#2C7E2A" transform="translate(189,155)"/>
<path d="M0 0 C-0.16526974 6.44551992 -3.703739 10.54117777 -8 15 C-13.77843298 19.74496519 -19.32777278 23.11360033 -26.625 24.875 C-30.17214037 26.05738012 -31.19597201 26.81642119 -33 30 C-30.9386477 29.30123651 -28.87737596 28.60223487 -26.81640625 27.90234375 C-24.88111966 27.28230047 -22.92854054 26.71455327 -20.96484375 26.19140625 C-9.88729219 23.16291402 -1.08627505 18.23452342 7 10 C13.18211195 5.39053056 20.47708373 4.76175905 28 5 C31.22677463 5.54904673 34.26022928 6.15796968 37 8 C37.734375 10.11328125 37.734375 10.11328125 38 12 C33.38699555 16.25815795 28.81912441 18.68528162 23 21 C23 21.33 23 21.66 23 22 C25.87413721 22.34318056 28.74858334 22.67682853 31.625 23 C32.48714111 23.09756592 33.34928223 23.19513184 34.23754883 23.2956543 C39.45892657 23.84794798 44.44395395 24.02361121 49.6875 23.8125 C57.01305803 23.71016392 60.66302828 25.77809628 65.8125 30.75 C70 35.24768519 70 35.24768519 70 40 C65.54387887 42.22806057 59.83349389 41.49944254 55 41 C51.63058887 39.77386786 48.8864491 38.10909642 46 36 C44.5459375 34.948125 44.5459375 34.948125 43.0625 33.875 C41 32 41 32 39 29 C37.68 29 36.36 29 35 29 C35.51949219 29.36351563 36.03898437 29.72703125 36.57421875 30.1015625 C41.08263104 33.35161942 44.81369676 36.41968909 48 41 C48 42.32 48 43.64 48 45 C38.22958075 45.850972 31.19491798 44.54288164 23 39 C20.78564629 37.0601145 19.57750523 35.53527627 18 33 C18 32.01 18 31.02 18 30 C9.8034029 27.1490097 2.34138286 27.45061815 -6.015625 29.5546875 C-8.37807031 30.08484255 -10.58748573 30.15564608 -13 30 C-13 30.66 -13 31.32 -13 32 C-12.154375 31.83886719 -11.30875 31.67773438 -10.4375 31.51171875 C-6.9121732 30.98692578 -3.5627273 30.8320325 0 30.8125 C1.7634375 30.79123047 1.7634375 30.79123047 3.5625 30.76953125 C8.93017646 31.12940956 12.93900979 32.60171213 17.1875 35.875 C17.84105469 36.36742187 18.49460937 36.85984375 19.16796875 37.3671875 C21.11727899 39.10452583 22.58675276 40.80505038 24 43 C23.8125 45.1875 23.8125 45.1875 23 47 C17.71580301 49.6420985 9.76611681 48.51154425 4.25 46.875 C-0.35540921 45.1101534 -4.47365037 42.45438332 -8 39 C-8.33 38.01 -8.66 37.02 -9 36 C-18.88191501 34.77537004 -25.56697389 34.03812703 -34 40 C-36.30177799 41.10365101 -38.63213846 42.04277938 -41 43 C-37.90039195 43.14416782 -35.563582 43.24371113 -32.6875 42 C-24.7900062 39.06139766 -17.36701813 41.65861252 -10 45 C-6.48975513 46.88098779 -4.25215904 48.62176144 -2 52 C-2 53.32 -2 54.64 -2 56 C-7.57123888 59.57130697 -15.61901788 58.65099069 -22 58 C-27.14664398 56.79933274 -30.86998488 55.38112959 -34.25 51.25 C-39.00488628 47.35963849 -45.09799106 48.64060839 -51 49 C-51 48.34 -51 47.68 -51 47 C-52.65 46.67 -54.3 46.34 -56 46 C-53.0844278 42.89632637 -50.12921025 40.32530575 -46.6875 37.8125 C-39.04833746 31.98429085 -33.07013755 24.05209765 -29.375 15.1875 C-26.28712265 8.91673369 -20.77122446 4.97064851 -15.1875 1 C-10.18449086 -0.5695715 -5.19951514 -0.22716328 0 0 Z " fill="#88AF2B" transform="translate(198,54)"/>
<path d="M0 0 C5.45673522 5.29748286 8.24573051 12.26126188 10.91455078 19.28027344 C11.9594811 21.8984749 13.12148899 24.41969517 14.33203125 26.96484375 C17.26924924 33.38684183 19.4988823 39.97996468 21.6875 46.6875 C22.27241211 48.44416992 22.27241211 48.44416992 22.86914062 50.23632812 C24.80972274 56.1177847 26.60829288 61.96430762 28 68 C28.66 68 29.32 68 30 68 C30.10449463 68.74080811 30.20898926 69.48161621 30.31665039 70.24487305 C31.40293612 77.38469684 33.02097383 84.01250777 35.4375 90.8125 C35.78095459 91.78807861 36.12440918 92.76365723 36.47827148 93.76879883 C43.83937847 114.04794281 53.78262754 134.19400313 67.4375 151 C69 153 69 153 69 155 C69.66 155 70.32 155 71 155 C71 155.66 71 156.32 71 157 C71.99 157.33 72.98 157.66 74 158 C75.69088222 159.97956942 77.35830472 161.97945196 79 164 C79.66 164.33 80.32 164.66 81 165 C81 165.66 81 166.32 81 167 C65.48220896 161.32476547 52.95069578 147.22935415 41.63378906 135.66601562 C39.43876002 133.42768953 37.22074169 131.21278204 35 129 C32.82098335 126.82098335 32.06030502 124.78414967 30.90722656 121.97216797 C29.97684157 119.94965721 28.89254305 118.18049389 27.671875 116.3203125 C24.95279879 112.02859746 22.7159797 107.59708031 20.5625 103 C20.17634521 102.18128418 19.79019043 101.36256836 19.39233398 100.51904297 C16.31957583 93.90305652 13.65033525 87.18531501 11.19140625 80.3203125 C10.49543605 78.38072343 9.76682282 76.45124468 8.9609375 74.5546875 C7.66572174 71.11130903 6.87150092 67.58082373 6.0625 64 C5.89065186 63.25250488 5.71880371 62.50500977 5.54174805 61.73486328 C5.19238543 60.21452798 4.84447307 58.69385865 4.49804688 57.17285156 C4.04442526 55.19381609 3.57761132 53.21781619 3.109375 51.2421875 C2.84640625 50.13101563 2.5834375 49.01984375 2.3125 47.875 C2.08175781 46.90304688 1.85101563 45.93109375 1.61328125 44.9296875 C0.32813422 38.79045012 -0.14183954 32.9046558 -0.09765625 26.66015625 C-0.0962413 25.89319931 -0.09482635 25.12624237 -0.09336853 24.33604431 C-0.08781766 21.9114881 -0.07527463 19.48702781 -0.0625 17.0625 C-0.05747864 15.40820447 -0.05291685 13.75390747 -0.04882812 12.09960938 C-0.03786438 8.06636988 -0.02063424 4.03320114 0 0 Z " fill="#6BA926" transform="translate(53,209)"/>
<path d="M0 0 C1.18754051 3.52893245 0.82355959 6.17460524 0.1875 9.8125 C-0.09673828 11.55273438 -0.09673828 11.55273438 -0.38671875 13.328125 C-0.78513469 15.71354527 -1.18357103 18.09896213 -1.58203125 20.484375 C-5.23291853 44.54345953 -4.13834833 70.33814369 5 93 C5.34160156 93.89847656 5.68320313 94.79695313 6.03515625 95.72265625 C11.77130522 109.80229463 21.27214984 120.88860369 34 129 C30.79299875 130.60350062 27.87303359 128.97675095 24.625 127.9375 C23.91053711 127.70998047 23.19607422 127.48246094 22.45996094 127.24804688 C13.73902534 124.37352679 5.60510835 121.55366533 0 114 C-0.78375 113.2575 -1.5675 112.515 -2.375 111.75 C-5.8126043 108.14870026 -8.35827056 104.20547357 -11 100 C-11.54269531 99.1440625 -12.08539063 98.288125 -12.64453125 97.40625 C-17.01566936 90.34436264 -19 85.37285828 -19 77 C-19.29509254 75.66380594 -19.62203789 74.33442844 -19.97265625 73.01171875 C-24.81360705 51.93493073 -20.51433672 29.62938593 -9.29296875 11.42578125 C-6.58771782 7.26359367 -3.55276089 3.47279521 0 0 Z " fill="#70AD29" transform="translate(140,264)"/>
<path d="M0 0 C9.62228694 0.66966877 9.62228694 0.66966877 13.3125 3.625 C13.92738281 4.09164062 14.54226563 4.55828125 15.17578125 5.0390625 C21.61770466 11.96378531 21.64724631 18.1549129 21.5625 27.3125 C21.58634766 28.48490234 21.61019531 29.65730469 21.63476562 30.86523438 C21.62002372 39.66615198 20.12868246 46.85695691 13.75390625 53.25390625 C13.03074219 53.68574219 12.30757813 54.11757813 11.5625 54.5625 C10.48162109 55.24505859 10.48162109 55.24505859 9.37890625 55.94140625 C6.60225717 57.17699229 4.00426702 57.61528091 1 58 C1.2165625 57.27941406 1.433125 56.55882812 1.65625 55.81640625 C6.44159763 37.36180174 4.87075558 18.24358897 0 0 Z " fill="#3E8F2D" transform="translate(341,210)"/>
<path d="M0 0 C-0.28875 0.78375 -0.5775 1.5675 -0.875 2.375 C-3.95444016 12.29764053 -4.42211267 21.93812202 -4.4375 32.25 C-4.44322021 32.93578125 -4.44894043 33.6215625 -4.45483398 34.328125 C-4.50702791 43.25861245 -3.65149021 51.43038365 -1 60 C-5.72647596 59.71641144 -9.02076419 58.99185294 -12.58203125 55.7265625 C-21.28843994 45.12537065 -20.97394175 31.9876168 -20 19 C-18.31837346 10.97571683 -14.40999358 6.62853671 -8 1.6875 C-4.84123365 -0.08930607 -3.50583104 -0.15989432 0 0 Z " fill="#44932F" transform="translate(167,210)"/>
<path d="M0 0 C2.41332442 1.96762036 3.64206159 3.4784702 4.734375 6.4140625 C5.27018092 12.0400247 4.92343393 15.57549033 1.734375 20.4140625 C-2.58141447 24.4140625 -2.58141447 24.4140625 -5.265625 24.4140625 C-5.265625 30.0240625 -5.265625 35.6340625 -5.265625 41.4140625 C-5.595625 41.4140625 -5.925625 41.4140625 -6.265625 41.4140625 C-6.265625 36.1340625 -6.265625 30.8540625 -6.265625 25.4140625 C-8.575625 25.4140625 -10.885625 25.4140625 -13.265625 25.4140625 C-18.2767607 24.22093495 -20.2796291 21.39539036 -23.265625 17.4140625 C-25.16477642 13.61575966 -25.00858184 9.53028308 -24.265625 5.4140625 C-22.06519449 1.69630216 -19.43333149 -1.84808356 -15.234375 -3.27734375 C-8.96005823 -4.26081801 -5.16510622 -3.58354269 0 0 Z " fill="#318533" transform="translate(264.265625,118.5859375)"/>
<path d="M0 0 C5.70721179 11.51633807 4.92517117 21.95686119 1 34 C-0.45279464 37.31237177 -1.99759744 39.99639616 -4 43 C-4.99 43 -5.98 43 -7 43 C-7 46.96 -7 50.92 -7 55 C-7.33 55 -7.66 55 -8 55 C-8.03738281 54.0821875 -8.07476562 53.164375 -8.11328125 52.21875 C-8.33274591 44.45418865 -8.33274591 44.45418865 -10.5625 37.125 C-13.92697311 29.38004951 -12.94961375 18.71130143 -10.3125 10.875 C-5.68693439 0 -5.68693439 0 0 0 Z " fill="#F4C035" transform="translate(94,129)"/>
<path d="M0 0 C1.08784335 3.31395986 1.07262544 3.83580335 -0.4375 7.25 C-5.6627963 15.55004548 -12.98354936 21.23977619 -22 25 C-23.27875 25.12375 -24.5575 25.2475 -25.875 25.375 C-29.04765512 25.67153673 -29.04765512 25.67153673 -30.53515625 27.82421875 C-31.80016725 29.84330316 -32.94458674 31.8648552 -34 34 C-35.65 33.34 -37.3 32.68 -39 32 C-38.34 29.03 -37.68 26.06 -37 23 C-36.67 24.32 -36.34 25.64 -36 27 C-32.88412179 24.52878625 -31.68752639 22.41588602 -30.625 18.6875 C-27.90550498 9.98796357 -21.98423954 5.68194845 -14.19140625 1.3125 C-9.39477745 -0.66016496 -5.08840236 -0.63104202 0 0 Z " fill="#C68D16" transform="translate(131,163)"/>
<path d="M0 0 C4.37750935 1.69131043 5.7830758 4.94285094 7.75 9.0625 C12.88551313 21.89269501 12.78531981 30.89229879 9.75 44.0625 C9.09 42.7425 8.43 41.4225 7.75 40.0625 C7.09 40.0625 6.43 40.0625 5.75 40.0625 C5.42 41.0525 5.09 42.0425 4.75 43.0625 C4.3375 42.340625 3.925 41.61875 3.5 40.875 C1.88136537 38.05228972 1.88136537 38.05228972 -0.25 36 C-6.27477343 27.15111403 -6.21386295 15.65500666 -4.3125 5.5 C-3.17271479 0.08813097 -3.17271479 0.08813097 0 0 Z " fill="#F1BB30" transform="translate(72.25,169.9375)"/>
<path d="M0 0 C0.9609913 12.5996637 -0.67177695 20.07805615 -7 31 C-7.5365055 32.23157203 -8.05744616 33.47004319 -8.5625 34.71484375 C-10.15320115 38.35011458 -12.06054096 40.37832032 -15 43 C-15 41.35 -15 39.7 -15 38 C-16.485 38.495 -16.485 38.495 -18 39 C-20.18834816 29.21470334 -19.71220882 19.95580018 -15 11 C-7.30533118 -0.19224556 -7.30533118 -0.19224556 0 0 Z " fill="#F2BE32" transform="translate(124,93)"/>
<path d="M0 0 C1.62890625 0.828125 1.62890625 0.828125 3.87890625 2.328125 C3.66773029 6.0237043 2.97945982 7.22757143 0.31640625 9.890625 C-8.17725455 16.35230953 -17.49004528 19.09384541 -28.12109375 18.328125 C-29.46268092 18.02974144 -30.80017995 17.70769793 -32.12109375 17.328125 C-32.99609375 15.265625 -32.99609375 15.265625 -33.12109375 12.328125 C-27.31780863 1.4870945 -11.40522834 -3.61270585 0 0 Z " fill="#D09416" transform="translate(149.12109375,135.671875)"/>
<path d="M0 0 C0.7578125 2.109375 0.7578125 2.109375 1 4 C-5.93928011 10.40548933 -13.73682483 13.93114985 -23.203125 14.31640625 C-24.1828125 14.35830078 -25.1625 14.40019531 -26.171875 14.44335938 C-27.18765625 14.48267578 -28.2034375 14.52199219 -29.25 14.5625 C-30.796875 14.62727539 -30.796875 14.62727539 -32.375 14.69335938 C-34.9165387 14.79925682 -37.45817196 14.90133443 -40 15 C-39.01 13.68 -38.02 12.36 -37 11 C-37.99 10.67 -38.98 10.34 -40 10 C-39.278125 9.608125 -38.55625 9.21625 -37.8125 8.8125 C-34.91310441 7.10121411 -34.91310441 7.10121411 -32.6875 4.5625 C-24.20956572 -3.52111176 -10.44000098 -6.00412073 0 0 Z " fill="#EDB72B" transform="translate(235,62)"/>
<path d="M0 0 C0 9.86846868 -4.84506175 18.40407328 -11.35546875 25.60546875 C-14.98505773 28.94323148 -18.22238605 31.54896378 -23 33 C-23.99 32.67 -24.98 32.34 -26 32 C-26.48688622 24.53441125 -25.35933647 18.13745979 -20.78515625 12.0546875 C-9.42791335 -0.75423307 -9.42791335 -0.75423307 0 0 Z " fill="#EAB125" transform="translate(161,64)"/>
<path d="M0 0 C4.51108942 2.04605139 7.7167632 3.9345198 10.5234375 8.14453125 C10.5234375 9.46453125 10.5234375 10.78453125 10.5234375 12.14453125 C4.95219862 15.71583822 -3.09558038 14.79552194 -9.4765625 14.14453125 C-15.65912487 12.70219324 -20.63612842 10.26511003 -24.4765625 5.14453125 C-24.4765625 3.82453125 -24.4765625 2.50453125 -24.4765625 1.14453125 C-26.4565625 1.14453125 -28.4365625 1.14453125 -30.4765625 1.14453125 C-30.1465625 0.48453125 -29.8165625 -0.17546875 -29.4765625 -0.85546875 C-27.89875 -0.79359375 -27.89875 -0.79359375 -26.2890625 -0.73046875 C-22.63324015 -0.62283245 -22.63324015 -0.62283245 -20.1015625 -1.85546875 C-13.13189806 -4.51057901 -6.70288948 -2.65674751 0 0 Z " fill="#EDB525" transform="translate(185.4765625,97.85546875)"/>
<path d="M0 0 C1.81324186 1.54196946 2.56218949 3.0940995 3.48828125 5.265625 C-4.05829818 12.08189029 -10.99827624 13.8227363 -21.046875 13.5390625 C-25.64419028 13.17625295 -30.04926365 12.41722631 -34.51171875 11.265625 C-33.85171875 10.935625 -33.19171875 10.605625 -32.51171875 10.265625 C-32.84171875 8.945625 -33.17171875 7.625625 -33.51171875 6.265625 C-23.96016072 -2.7052912 -12.37324461 -6.67678296 0 0 Z " fill="#E8B227" transform="translate(166.51171875,113.734375)"/>
<path d="M0 0 C-0.16526974 6.44551992 -3.703739 10.54117777 -8 15 C-13.55926546 19.56499559 -19.60984535 24.39024075 -27.125 24.125 C-29.41585382 24.05110149 -31.70795458 24 -34 24 C-33.5875 23.34 -33.175 22.68 -32.75 22 C-31.05813578 19.24699042 -31.05813578 19.24699042 -30.2265625 17.16796875 C-27.07843635 9.84640932 -21.56909967 5.53802643 -15.1875 1 C-10.18449086 -0.5695715 -5.19951514 -0.22716328 0 0 Z " fill="#DDA324" transform="translate(198,54)"/>
<path d="M0 0 C1.20269531 -0.01417969 2.40539062 -0.02835937 3.64453125 -0.04296875 C9.06446577 0.3095959 13.08443585 1.75679589 17.375 5.0625 C18.02855469 5.55492188 18.68210938 6.04734375 19.35546875 6.5546875 C21.30477899 8.29202583 22.77425276 9.99255038 24.1875 12.1875 C24 14.375 24 14.375 23.1875 16.1875 C17.90330301 18.8295985 9.95361681 17.69904425 4.4375 16.0625 C-0.16790921 14.2976534 -4.28615037 11.64188332 -7.8125 8.1875 C-8.1425 7.1975 -8.4725 6.2075 -8.8125 5.1875 C-9.4725 4.8575 -10.1325 4.5275 -10.8125 4.1875 C-10.4825 3.1975 -10.1525 2.2075 -9.8125 1.1875 C-6.37168729 0.04056243 -3.62503288 0.01930262 0 0 Z " fill="#ECB52E" transform="translate(197.8125,84.8125)"/>
<path d="M0 0 C3.16616599 -0.14700056 6.33143982 -0.23462106 9.5 -0.3125 C10.8303125 -0.3753418 10.8303125 -0.3753418 12.1875 -0.43945312 C19.94443975 -0.58204393 24.4022145 1.77139025 30.09375 6.87890625 C30.5578125 7.43449219 31.021875 7.99007812 31.5 8.5625 C32.22703125 9.39974609 32.22703125 9.39974609 32.96875 10.25390625 C34 12 34 12 34 16 C29.54387887 18.22806057 23.83349389 17.49944254 19 17 C15.63058887 15.77386786 12.8864491 14.10909642 10 12 C8.5459375 10.948125 8.5459375 10.948125 7.0625 9.875 C5 8 5 8 3 5 C0.43717258 4.27034634 0.43717258 4.27034634 -2 4 C-1.01 3.67 -0.02 3.34 1 3 C0.67 2.01 0.34 1.02 0 0 Z " fill="#E7B029" transform="translate(234,78)"/>
<path d="M0 0 C3.43229611 2.05303624 5.70955241 4.12865724 7 8 C7.39537729 13.23874905 6.80588657 16.53136583 4 21 C0.01742897 23.65504735 -3.31430555 23.85579591 -8 23 C-11.57965315 19.59932951 -13.15960509 16.62123867 -13.375 11.75 C-13.35207487 8.19660432 -12.89656284 6.25259968 -10.625 3.5 C-6.96605099 0.01528666 -5.03918087 -0.58144395 0 0 Z " fill="#82B82B" transform="translate(288,225)"/>
<path d="M0 0 C3.16872216 0.68885264 4.96142228 2.13674555 7.15625 4.46875 C9.00487688 8.16600375 8.63212094 12.43336442 8.15625 16.46875 C6.35978146 19.40298195 5.2121429 20.94080355 2.15625 22.46875 C-0.90061964 22.88184049 -3.79493586 22.96784413 -6.84375 22.46875 C-10.42340315 19.06807951 -12.00335509 16.08998867 -12.21875 11.21875 C-12.15972355 7.89717049 -11.81620999 5.65632984 -9.90625 2.90625 C-6.30815851 0.0424629 -4.4774545 -0.29849697 0 0 Z " fill="#84BA2A" transform="translate(223.84375,225.53125)"/>
<path d="M0 0 C9.71041007 -0.62647807 16.60942476 1.63127828 24 8.0625 C26.42215683 10.31597091 28.15316524 12.22974787 30 15 C30 16.32 30 17.64 30 19 C20.22958075 19.850972 13.19491798 18.54288164 5 13 C2.78564629 11.0601145 1.57750523 9.53527627 0 7 C0 6.01 0 5.02 0 4 C-0.66 3.67 -1.32 3.34 -2 3 C-1.34 3 -0.68 3 0 3 C0 2.01 0 1.02 0 0 Z " fill="#F0BB32" transform="translate(216,80)"/>
<path d="M0 0 C3.37462715 0.54723683 5.08235 1.0549 8 3 C13.30309806 4.60699941 20.06645648 5.21212388 25.25 3.0703125 C26.58731741 2.33580104 27.91736482 1.5878317 29.23828125 0.82421875 C31 0 31 0 34 0.25 C34.66 0.4975 35.32 0.745 36 1 C35.8046875 3.328125 35.8046875 3.328125 35 6 C32.8203125 7.546875 32.8203125 7.546875 30.125 8.75 C29.24070312 9.15734375 28.35640625 9.5646875 27.4453125 9.984375 C21.10917408 12.61599799 14.67987855 13.33995578 8.125 10.953125 C4.68422283 9.25274093 1.72443389 7.72443389 -1 5 C-0.625 2.375 -0.625 2.375 0 0 Z " fill="#80B72B" transform="translate(236,258)"/>
<path d="M0 0 C0.495 1.98 0.495 1.98 1 4 C0.505 3.01 0.505 3.01 0 2 C-11.63877626 8.88764552 -22.54948803 16.22694496 -32 26 C-32.66 25.67 -33.32 25.34 -34 25 C-33.34 24.34 -32.68 23.68 -32 23 C-31.53850833 21.61833896 -31.12774688 20.21936499 -30.75 18.8125 C-27.88488329 10.07738808 -22.07630685 5.73357067 -14.19140625 1.3125 C-9.39477745 -0.66016496 -5.08840236 -0.63104202 0 0 Z " fill="#F7C941" transform="translate(131,163)"/>
<path d="M0 0 C1.62890625 0.828125 1.62890625 0.828125 3.87890625 2.328125 C1.57697682 4.63005443 0.29869633 4.92236199 -2.8125 5.73046875 C-4.23079102 6.10655273 -4.23079102 6.10655273 -5.67773438 6.49023438 C-6.66966797 6.74611328 -7.66160156 7.00199219 -8.68359375 7.265625 C-10.62306275 7.77219305 -12.56187496 8.2812828 -14.5 8.79296875 C-15.91756592 9.16591064 -15.91756592 9.16591064 -17.36376953 9.54638672 C-20.69634398 10.49121613 -23.92961204 11.6395272 -27.16381836 12.87719727 C-29.47422006 13.40948016 -30.89354553 13.06462544 -33.12109375 12.328125 C-25.59362526 2.22546992 -12.70591837 -4.02471079 0 0 Z " fill="#F9CB45" transform="translate(149.12109375,135.671875)"/>
<path d="M0 0 C4.89401373 2.21215481 8.24301439 4.09637111 10.5234375 9.140625 C4.22946272 8.74469166 -1.46955438 7.67329643 -7.515625 5.90625 C-12.7593777 4.55034561 -18.11480474 3.86518686 -23.4765625 3.140625 C-23.4765625 2.480625 -23.4765625 1.820625 -23.4765625 1.140625 C-25.7865625 1.140625 -28.0965625 1.140625 -30.4765625 1.140625 C-30.1465625 0.480625 -29.8165625 -0.179375 -29.4765625 -0.859375 C-27.89875 -0.7975 -27.89875 -0.7975 -26.2890625 -0.734375 C-22.63324015 -0.6267387 -22.63324015 -0.6267387 -20.1015625 -1.859375 C-13.13337055 -4.51392431 -6.6992823 -2.66470052 0 0 Z " fill="#FAD25E" transform="translate(185.4765625,97.859375)"/>
<path d="M0 0 C2.94244821 1.5877879 4.00694 3.1886869 5.3125 6.25 C4.25933594 6.22679688 3.20617187 6.20359375 2.12109375 6.1796875 C-6.60535175 6.04938127 -14.87803593 6.45462574 -23.515625 7.8125 C-26.29691308 8.19612594 -28.8868114 8.33423124 -31.6875 8.25 C-25.10140536 -2.22787784 -10.9544287 -4.99012995 0 0 Z " fill="#FACF52" transform="translate(164.6875,112.75)"/>
<path d="M0 0 C0.66 0.33 1.32 0.66 2 1 C1.525625 1.680625 1.05125 2.36125 0.5625 3.0625 C-1.18182908 5.9180427 -1.18182908 5.9180427 -1.38671875 9.16015625 C-2.09928253 13.62162245 -3.57475341 17.26114259 -5.375 21.375 C-6.01137523 22.87013356 -6.64551349 24.36622135 -7.27734375 25.86328125 C-7.57753418 26.57436035 -7.87772461 27.28543945 -8.18701172 28.01806641 C-9.66407819 31.61891493 -10.85136287 35.28382106 -12 39 C-12.33 39 -12.66 39 -13 39 C-15.18834816 29.21470334 -14.71220882 19.95580018 -10 11 C-3.71428571 1.85714286 -3.71428571 1.85714286 0 0 Z " fill="#F6C53B" transform="translate(119,93)"/>
<path d="M0 0 C0 1.98 0 3.96 0 6 C-0.33 6 -0.66 6 -1 6 C-1 4.35 -1 2.7 -1 1 C-4.88368959 2.2945632 -4.96613629 3.48822621 -7 7 C-9.64179598 10.59106092 -12.42050211 14.08001506 -15.17382812 17.5859375 C-18.52171315 21.90081808 -21.4154831 26.18657541 -24 31 C-24.66 31 -25.32 31 -26 31 C-25.91180119 29.29076788 -25.80361428 27.58256287 -25.6875 25.875 C-25.62949219 24.92367187 -25.57148438 23.97234375 -25.51171875 22.9921875 C-24.00878956 14.20406721 -16.82692871 6.62173865 -9.875 1.375 C-6.38970941 -0.29187811 -3.81709707 -0.30536777 0 0 Z " fill="#F6C53A" transform="translate(161,64)"/>
<path d="M0 0 C-0.33 1.32 -0.66 2.64 -1 4 C-1 3.34 -1 2.68 -1 2 C-5.7505181 4.5409748 -10.19663794 7.43613678 -14.625 10.5 C-15.17502686 10.87954834 -15.72505371 11.25909668 -16.29174805 11.65014648 C-18.86755493 13.44604013 -21.34744973 15.28578963 -23.7734375 17.28125 C-26 19 -26 19 -28 19 C-28.33 19.99 -28.66 20.98 -29 22 C-29.66 22 -30.32 22 -31 22 C-29.68221426 13.03905698 -24.8655308 8.39945391 -18 3 C-12.4225614 -0.96617856 -6.58191716 -0.28755949 0 0 Z " fill="#F6C63E" transform="translate(198,54)"/>
<path d="M0 0 C-0.33 0.66 -0.66 1.32 -1 2 C-3.25317383 2.65429688 -3.25317383 2.65429688 -6.20703125 3.21875 C-7.7993457 3.53392578 -7.7993457 3.53392578 -9.42382812 3.85546875 C-10.54208984 4.06816406 -11.66035156 4.28085938 -12.8125 4.5 C-15.00751823 4.92187304 -17.20157975 5.34876229 -19.39453125 5.78125 C-20.86176636 6.0606543 -20.86176636 6.0606543 -22.35864258 6.34570312 C-24.8366758 6.95954258 -26.75361337 7.82099297 -29 9 C-31.140625 9.1953125 -31.140625 9.1953125 -33.25 9.125 C-35.10625 9.063125 -35.10625 9.063125 -37 9 C-32.87604487 2.98589877 -27.49680473 -0.6018835 -20.4375 -2.3125 C-12.8362841 -3.66382727 -7.13042759 -2.71635337 0 0 Z " fill="#F8C73C" transform="translate(235,62)"/>
<path d="M0 0 C0.88333008 -0.00064453 1.76666016 -0.00128906 2.67675781 -0.00195312 C9.78089765 0.05494206 16.52827245 0.76262138 23.5 2.1875 C23.995 3.6725 23.995 3.6725 24.5 5.1875 C18.06744599 5.30836218 11.88226945 5.01101864 5.5 4.1875 C5.5 5.1775 5.5 6.1675 5.5 7.1875 C4.52933594 7.02378906 3.55867188 6.86007813 2.55859375 6.69140625 C-1.78276888 6.07121159 -6.05997771 6.07623583 -10.4375 6.125 C-11.21673828 6.12951172 -11.99597656 6.13402344 -12.79882812 6.13867188 C-14.69925268 6.15033092 -16.59963706 6.16826123 -18.5 6.1875 C-15.22481711 1.45668027 -15.22481711 1.45668027 -12.34375 0.38671875 C-8.22452085 0.09814638 -4.12902387 -0.00309406 0 0 Z " fill="#86A11A" transform="translate(210.5,75.8125)"/>
<path d="M0 0 C4.48943281 4.24343649 5.13881086 8.58535494 5.3125 14.625 C5.1378323 24.65591657 2.56854667 33.64718 -3 42 C-3.99 41.67 -4.98 41.34 -6 41 C-5.67 38.03 -5.34 35.06 -5 32 C-4.34 32.33 -3.68 32.66 -3 33 C1.2359283 22.13392307 1.49597554 11.48448913 0 0 Z " fill="#DCA324" transform="translate(93,130)"/>
<path d="M0 0 C1.8125 3 1.8125 3 3 6 C3.66 6.99 4.32 7.98 5 9 C0.83899016 9 -0.75559259 6.99094968 -3.8671875 4.41015625 C-7.56632027 1.96439264 -11.52102216 1.87432918 -15.86328125 1.90234375 C-16.74951172 1.90556641 -17.63574219 1.90878906 -18.54882812 1.91210938 C-19.9168457 1.92467773 -19.9168457 1.92467773 -21.3125 1.9375 C-22.24384766 1.94201172 -23.17519531 1.94652344 -24.13476562 1.95117188 C-26.42324373 1.96290766 -28.71158808 1.97932637 -31 2 C-31 1.34 -31 0.68 -31 0 C-8.78397356 -5.377943 -8.78397356 -5.377943 0 0 Z " fill="#F8F5E7" transform="translate(216,84)"/>
<path d="M0 0 C-1.79034243 4.95787135 -3.57427536 8.0495169 -8 11 C-10.6875 11.125 -10.6875 11.125 -13 11 C-13 11.66 -13 12.32 -13 13 C-14.65 12.67 -16.3 12.34 -18 12 C-18 10.68 -18 9.36 -18 8 C-19.98 8.33 -21.96 8.66 -24 9 C-21.17970408 7.11980272 -19.39621804 6.46291408 -16.1875 5.625 C-10.31586651 3.96080155 -6.22095246 -0.73187676 0 0 Z " fill="#93B231" transform="translate(198,73)"/>
<path d="M0 0 C-0.33 0.99 -0.66 1.98 -1 3 C-2.33038449 3.3449145 -3.66457061 3.67516582 -5 4 C-5.86625 4.61875 -6.7325 5.2375 -7.625 5.875 C-16.59051972 11.51995686 -25.7157748 11.37023211 -36 11 C-33.36174805 9.24116536 -31.68012389 8.47090628 -28.71875 7.59765625 C-27.88134277 7.34838379 -27.04393555 7.09911133 -26.18115234 6.84228516 C-25.29637207 6.58495605 -24.4115918 6.32762695 -23.5 6.0625 C-22.60104004 5.79743652 -21.70208008 5.53237305 -20.77587891 5.25927734 C-2.86459694 0 -2.86459694 0 0 0 Z " fill="#ECB426" transform="translate(153,139)"/>
<path d="M0 0 C0.33 0.99 0.66 1.98 1 3 C-5.93365797 11.85967407 -13.62667115 18.15287178 -25 20 C-21.77949521 15.49619761 -18.08093684 12.59963628 -13.625 9.4375 C-12.97789063 8.96892578 -12.33078125 8.50035156 -11.6640625 8.01757812 C-7.8325855 5.25597928 -3.94549558 2.59572078 0 0 Z " fill="#E8AF22" transform="translate(127,166)"/>
<path d="M0 0 C-0.99 0.495 -0.99 0.495 -2 1 C-2 1.99 -2 2.98 -2 4 C-4.6875 6 -4.6875 6 -8 8 C-8.9075 8.5775 -9.815 9.155 -10.75 9.75 C-13 11 -13 11 -15 11 C-15 11.66 -15 12.32 -15 13 C-15.8971875 13.1546875 -15.8971875 13.1546875 -16.8125 13.3125 C-19.28243264 14.08876455 -20.32251235 15.07088921 -22 17 C-22.33 16.34 -22.66 15.68 -23 15 C-18.72002071 8.35397581 -9.00100081 -3.73788578 0 0 Z " fill="#FBD55E" transform="translate(124,164)"/>
<path d="M0 0 C0.66 0 1.32 0 2 0 C4.18100174 8.45138174 2.75759552 16.60434284 1 25 C0.01 25 -0.98 25 -2 25 C-4.24208347 17.14373951 -3.15154715 8.77383823 -1 1 C-0.67 0.67 -0.34 0.34 0 0 Z " fill="#FBD256" transform="translate(70,170)"/>
<path d="M0 0 C5.50001108 0.41250083 9.80255642 2.49267665 14 6 C15.234375 8.16796875 15.234375 8.16796875 16 10 C9.70602522 9.60406666 4.00700812 8.53267143 -2.0390625 6.765625 C-7.2828152 5.40972061 -12.63824224 4.72456186 -18 4 C-18 3.67 -18 3.34 -18 3 C-9.92905177 2.89533352 -2.0125322 2.96612488 6 4 C4.02 3.01 2.04 2.02 0 1 C0 0.67 0 0.34 0 0 Z " fill="#F9C940" transform="translate(180,97)"/>
<path d="M0 0 C1.82144531 0.00966797 1.82144531 0.00966797 3.6796875 0.01953125 C6.62274427 0.16301361 9.26636918 0.50816758 12.125 1.1875 C11.795 1.8475 11.465 2.5075 11.125 3.1875 C12.115 4.1775 13.105 5.1675 14.125 6.1875 C5.32648083 6.60482107 -2.11202211 6.89998522 -9.875 2.1875 C-6.20702576 -0.25781616 -4.35988996 -0.05069639 0 0 Z " fill="#F8C944" transform="translate(197.875,84.8125)"/>
<path d="M0 0 C0.66 0.33 1.32 0.66 2 1 C-10.68048492 16.11478395 -10.68048492 16.11478395 -21 19 C-21.99 19 -22.98 19 -24 19 C-24 18.34 -24 17.68 -24 17 C-22.015625 15.3359375 -22.015625 15.3359375 -19.25 13.375 C-18.25742188 12.66988281 -17.26484375 11.96476562 -16.2421875 11.23828125 C-11.97543578 8.29268037 -7.66966497 5.41285193 -3.3359375 2.56640625 C-1.13569502 1.20018547 -1.13569502 1.20018547 0 0 Z " fill="#ECB324" transform="translate(194,56)"/>
<path d="M0 0 C0 1.33333333 0 2.66666667 0 4 C-1.00160156 4.19335938 -2.00320312 4.38671875 -3.03515625 4.5859375 C-4.37763508 4.84880049 -5.72008127 5.11183026 -7.0625 5.375 C-8.04766602 5.56449219 -8.04766602 5.56449219 -9.05273438 5.7578125 C-13.43959482 6.6222185 -17.76891654 7.53153408 -22 9 C-22.99 10.485 -22.99 10.485 -24 12 C-25.32 11.67 -26.64 11.34 -28 11 C-19.29113839 2.74354678 -12.19219647 -0.24384393 0 0 Z " fill="#FAD45B" transform="translate(226,59)"/>
<path d="M0 0 C-1.45228054 3.77592939 -3.13697199 5.01831202 -6.75 6.75 C-13.38015006 9.59649771 -19.88187161 9.86142955 -27 9 C-29.41015625 7.97265625 -29.41015625 7.97265625 -31 7 C-31 6.34 -31 5.68 -31 5 C-29.53240234 5.05220703 -29.53240234 5.05220703 -28.03515625 5.10546875 C-19.59762383 5.27969508 -12.51233822 4.9609131 -4.94921875 0.8984375 C-3 0 -3 0 0 0 Z " fill="#D9A535" transform="translate(169,118)"/>
<path d="M0 0 C0.8971875 0.309375 0.8971875 0.309375 1.8125 0.625 C1.4825 0.955 1.1525 1.285 0.8125 1.625 C1.75609375 1.61339844 2.6996875 1.60179688 3.671875 1.58984375 C11.78175884 1.53284657 19.73542197 1.78269764 27.8125 2.625 C27.4825 3.285 27.1525 3.945 26.8125 4.625 C25.83152344 4.60179688 24.85054687 4.57859375 23.83984375 4.5546875 C15.386141 4.41961398 7.38909384 4.88173942 -0.98046875 6.1875 C-3.77369301 6.56854886 -6.37547298 6.70973151 -9.1875 6.625 C-3.65359043 -0.62632979 -3.65359043 -0.62632979 0 0 Z " fill="#F8CA46" transform="translate(142.1875,114.375)"/>
<path d="M0 0 C0.66 0.33 1.32 0.66 2 1 C1.59136719 1.65355469 1.18273437 2.30710937 0.76171875 2.98046875 C-1.3956813 6.67818546 -3.29150774 10.47594424 -5.1875 14.3125 C-5.55552734 15.05306641 -5.92355469 15.79363281 -6.30273438 16.55664062 C-7.20365605 18.37018425 -8.10208149 20.18496758 -9 22 C-10.32 21.67 -11.64 21.34 -13 21 C-12.59910683 13.1825832 -6.98485999 6.69698284 -2 1 C-1.34 0.67 -0.68 0.34 0 0 Z " fill="#FAD256" transform="translate(119,93)"/>
<path d="M0 0 C0.66 0 1.32 0 2 0 C1.48123359 4.46139109 0.38772533 7.23474082 -2 11 C-2.45375 12.155 -2.9075 13.31 -3.375 14.5 C-5.09033373 18.19456496 -6.98229225 20.30853093 -10 23 C-10 21.35 -10 19.7 -10 18 C-10.66 18 -11.32 18 -12 18 C-11.44326254 14.52595824 -10.50276533 13.29965784 -7.6875 11.25 C-3.65744056 8.01600169 -2.03080066 4.71145754 0 0 Z " fill="#E1A925" transform="translate(119,113)"/>
<path d="M0 0 C6.77493642 -0.43709267 13.24185978 0.01271639 19 4 C19.78125 6.64453125 19.78125 6.64453125 20 9 C13.64948454 9.36637589 13.64948454 9.36637589 10.5625 7.625 C9 6 9 6 9 4 C6.69 4 4.38 4 2 4 C1.34 2.68 0.68 1.36 0 0 Z " fill="#F6CF53" transform="translate(216,80)"/>
<path d="M0 0 C2.39674267 0.11456128 4.79181218 0.24128719 7.1875 0.375 C8.19780273 0.42140625 8.19780273 0.42140625 9.22851562 0.46875 C13.19678975 0.70103922 16.40729879 1.28387476 20 3 C20 3.66 20 4.32 20 5 C13.56744599 5.12086218 7.38226945 4.82351864 1 4 C1 4.99 1 5.98 1 7 C-0.65 6.67 -2.3 6.34 -4 6 C-4 5.34 -4 4.68 -4 4 C-2.68 4 -1.36 4 0 4 C0 2.68 0 1.36 0 0 Z " fill="#918514" transform="translate(215,76)"/>
<path d="M0 0 C8.70984454 -1.04055665 14.5328955 1.68909431 22 6 C22 6.33 22 6.66 22 7 C13.61214729 7.83507383 7.51358897 5.61478507 0 2 C0 1.34 0 0.68 0 0 Z " fill="#D6E6D4" transform="translate(283,372)"/>
<path d="M0 0 C0.33 0.66 0.66 1.32 1 2 C1.66 2 2.32 2 3 2 C2.52013969 7.56890517 1.70084819 12.67067568 0 18 C-1.32 18.33 -2.64 18.66 -4 19 C-4.53699151 11.88486245 -2.69707634 6.55004254 0 0 Z " fill="#FBD156" transform="translate(86,135)"/>
<path d="M0 0 C-1.5041341 4.3029659 -4.24847412 5.60553888 -8.125 7.75 C-9.76855469 8.67039062 -9.76855469 8.67039062 -11.4453125 9.609375 C-12.28835937 10.06828125 -13.13140625 10.5271875 -14 11 C-14.33 10.34 -14.66 9.68 -15 9 C-15.66 8.67 -16.32 8.34 -17 8 C-5.63938053 -2.38589176 -5.63938053 -2.38589176 0 0 Z " fill="#FAD256" transform="translate(190,55)"/>
<path d="M0 0 C-0.33 0.99 -0.66 1.98 -1 3 C-3.8359375 4.203125 -3.8359375 4.203125 -7.375 5.25 C-8.53773438 5.60578125 -9.70046875 5.9615625 -10.8984375 6.328125 C-14 7 -14 7 -17 6 C-16.9375 4.1875 -16.9375 4.1875 -16 2 C-10.44245796 -1.35768165 -6.26588 -1.17929261 0 0 Z " fill="#FCD55B" transform="translate(141,137)"/>
<path d="M0 0 C0.99 0 1.98 0 3 0 C2.21525836 6.27793314 -0.3626173 11.93295813 -5.25 16 C-6.61125 16.99 -6.61125 16.99 -8 18 C-3.6 3.6 -3.6 3.6 0 0 Z " fill="#947C27" transform="translate(135,96)"/>
<path d="M0 0 C7.26 0 14.52 0 22 0 C22 0.66 22 1.32 22 2 C18.1584024 4.56780471 14.1860825 4.22688882 9.75 4.125 C9.00492188 4.11597656 8.25984375 4.10695313 7.4921875 4.09765625 C5.66131941 4.07418358 3.83061762 4.03831525 2 4 C1.34 2.68 0.68 1.36 0 0 Z " fill="#E2A721" transform="translate(174,108)"/>
<path d="M0 0 C0 2.125 0 2.125 -1 5 C-3.48288412 7.27266281 -6.21965021 9.11204449 -9 11 C-10.33803283 11.99370314 -11.6727757 12.99190604 -13 14 C-12.51998309 9.77585119 -11.98508364 7.08801756 -9 4 C-3.66666667 0 -3.66666667 0 0 0 Z " fill="#7F8227" transform="translate(117,149)"/>
<path d="M0 0 C0.69140625 1.71875 0.69140625 1.71875 1 4 C-2.09461205 9.61578162 -6.44943878 13.88627053 -12 17 C-12 12.63541582 -9.31277615 10.49675087 -6.5625 7.375 C-6.04623047 6.776875 -5.52996094 6.17875 -4.99804688 5.5625 C-1.36941964 1.36941964 -1.36941964 1.36941964 0 0 Z " fill="#E4AB29" transform="translate(196,56)"/>
<path d="M0 0 C2.24449658 2.82351164 3.89137668 5.62053714 5.4375 8.875 C7.36832552 12.83026682 9.45302608 16.41537004 12 20 C11.67 20.66 11.34 21.32 11 22 C6.22213069 16.21439151 1.82738751 10.45871642 -2 4 C-1.34 4 -0.68 4 0 4 C0 2.68 0 1.36 0 0 Z " fill="#DDE9D3" transform="translate(74,312)"/>
<path d="M0 0 C0.66 0 1.32 0 2 0 C2.05392397 2.77109307 2.09363455 5.54113818 2.125 8.3125 C2.14175781 9.09818359 2.15851563 9.88386719 2.17578125 10.69335938 C2.18222656 11.45068359 2.18867187 12.20800781 2.1953125 12.98828125 C2.20578613 13.68477783 2.21625977 14.38127441 2.22705078 15.09887695 C2 17 2 17 0 20 C-0.66 20 -1.32 20 -2 20 C-2.33 20.99 -2.66 21.98 -3 23 C-2.85831863 21.56208484 -2.71148957 20.1246763 -2.5625 18.6875 C-2.48128906 17.88699219 -2.40007812 17.08648437 -2.31640625 16.26171875 C-2 14 -2 14 -1 11 C-0.77820215 9.10787263 -0.59385985 7.21115528 -0.4375 5.3125 C-0.31181641 3.82169922 -0.31181641 3.82169922 -0.18359375 2.30078125 C-0.12300781 1.54152344 -0.06242187 0.78226563 0 0 Z " fill="#D09312" transform="translate(80,190)"/>
<path d="M0 0 C5.45688202 10.10103693 3.65326719 19.42972588 1 30 C0.34 29.34 -0.32 28.68 -1 28 C-0.72518661 26.3226907 -0.37409972 24.65799225 0 23 C0.27013359 20.06722341 0.41211776 17.12858211 0.5625 14.1875 C0.60568359 13.39923828 0.64886719 12.61097656 0.69335938 11.79882812 C0.79878321 9.86605785 0.89983094 7.93304974 1 6 C0.34 6 -0.32 6 -1 6 C-0.67 4.02 -0.34 2.04 0 0 Z " fill="#D5BF77" transform="translate(81,184)"/>
<path d="M0 0 C6.46326465 -0.45356243 9.60931587 0.40621058 15 4 C14.38125 4.144375 13.7625 4.28875 13.125 4.4375 C10.96741678 4.93152225 10.96741678 4.93152225 9 6 C6.8359375 5.66015625 6.8359375 5.66015625 4.375 5.0625 C3.55773437 4.86785156 2.74046875 4.67320313 1.8984375 4.47265625 C0.95871094 4.23869141 0.95871094 4.23869141 0 4 C0 2.68 0 1.36 0 0 Z " fill="#F2C23F" transform="translate(246,78)"/>
<path d="M0 0 C-1.33783869 5.51858459 -5.5122365 8.85009807 -10 12 C-12.2578125 12.703125 -12.2578125 12.703125 -14 13 C-5.53488372 0 -5.53488372 0 0 0 Z " fill="#A27723" transform="translate(169,77)"/>
<path d="M0 0 C0.66 0.66 1.32 1.32 2 2 C1.89074068 5.16852034 0.77791951 6.24545738 -1.375 8.625 C-6.21052632 13 -6.21052632 13 -10 13 C-8.56501627 9.79111679 -6.78256013 7.42193016 -4.4375 4.8125 C-3.81746094 4.11769531 -3.19742188 3.42289062 -2.55859375 2.70703125 C-1.72141231 1.79011824 -0.8779528 0.8779528 0 0 Z " fill="#FAD257" transform="translate(148,68)"/>
<path d="M0 0 C0.66 0 1.32 0 2 0 C2 0.66 2 1.32 2 2 C2.66 2.33 3.32 2.66 4 3 C3.37755401 4.27208622 2.75193233 5.54261882 2.125 6.8125 C1.77695313 7.52019531 1.42890625 8.22789062 1.0703125 8.95703125 C0 11 0 11 -2 14 C-2.99 13.67 -3.98 13.34 -5 13 C-4.67 10.03 -4.34 7.06 -4 4 C-3.34 4.33 -2.68 4.66 -2 5 C-1.34 3.35 -0.68 1.7 0 0 Z " fill="#DCA01C" transform="translate(92,158)"/>
<path d="M0 0 C0 0.33 0 0.66 0 1 C-6.5508985 0.54240047 -12.6753842 -0.2100144 -19 -2 C-11.76772362 -6.82151759 -6.53988082 -4.65058192 0 0 Z " fill="#FDD761" transform="translate(187,101)"/>
<path d="M0 0 C2.71675995 0.36712972 4.61063713 0.72744599 6.875 2.3125 C8 4 8 4 7.6875 6.1875 C7.3471875 7.0846875 7.3471875 7.0846875 7 8 C2.03083364 7.48594831 -2.29026351 6.76615118 -7 5 C-5 3 -5 3 -3.0546875 2.8046875 C-1.03645833 2.86979167 0.98177083 2.93489583 3 3 C2.01 2.01 1.02 1.02 0 0 Z " fill="#F5BF32" transform="translate(208,87)"/>
<path d="M0 0 C0.33 1.32 0.66 2.64 1 4 C3.49361571 2.79618552 5.68143083 1.54571278 8 0 C7.46884894 4.51478398 5.63379708 7.34666857 3 11 C0.525 10.01 0.525 10.01 -2 9 C-1.34 6.03 -0.68 3.06 0 0 Z " fill="#C7951D" transform="translate(94,186)"/>
<path d="M0 0 C0 1.32 0 2.64 0 4 C-5 8 -5 8 -9 8 C-8.8125 5.1875 -8.8125 5.1875 -8 2 C-3.9389313 -1.3129771 -3.9389313 -1.3129771 0 0 Z " fill="#509B2A" transform="translate(253,120)"/>
<path d="M0 0 C1.17949219 0.11085938 2.35898438 0.22171875 3.57421875 0.3359375 C4.47785156 0.43132812 5.38148438 0.52671875 6.3125 0.625 C4.39934881 3.20119276 3.4108686 3.60895232 0.17578125 4.13671875 C-0.99597656 4.19472656 -2.16773438 4.25273438 -3.375 4.3125 C-4.55449219 4.37824219 -5.73398438 4.44398437 -6.94921875 4.51171875 C-8.30466797 4.56779297 -8.30466797 4.56779297 -9.6875 4.625 C-9.6875 3.635 -9.6875 2.645 -9.6875 1.625 C-5.94784036 -0.86810643 -4.39679359 -0.4353261 0 0 Z " fill="#FCD65C" transform="translate(151.6875,112.375)"/>
<path d="M0 0 C-1.33213058 3.5865054 -2.76916059 6.87682483 -5 10 C-5.99 10 -6.98 10 -8 10 C-9.65503095 11.0772721 -9.65503095 11.0772721 -11.1875 12.5 C-12.115625 13.325 -13.04375 14.15 -14 15 C-12.58397787 11.85093585 -10.86264918 9.50476328 -8.5625 6.9375 C-7.96566406 6.26589844 -7.36882812 5.59429687 -6.75390625 4.90234375 C-5.88572266 3.96068359 -5.88572266 3.96068359 -5 3 C-4.47277344 2.42378906 -3.94554687 1.84757812 -3.40234375 1.25390625 C-2 0 -2 0 0 0 Z " fill="#E7F1E6" transform="translate(288,340)"/>
<path d="M0 0 C-0.33 0.66 -0.66 1.32 -1 2 C-0.01 2.99 0.98 3.98 2 5 C-3.53657294 5.42589023 -7.89665983 3.905247 -13 2 C-12.67 1.34 -12.34 0.68 -12 0 C-7.8265198 -1.35024359 -4.26066408 -0.7518819 0 0 Z " fill="#FBD15A" transform="translate(210,86)"/>
<path d="M0 0 C3.96 0 7.92 0 12 0 C12.33 1.65 12.66 3.3 13 5 C11.88625 4.79375 10.7725 4.5875 9.625 4.375 C8.42875 4.25125 7.2325 4.1275 6 4 C5.34 4.66 4.68 5.32 4 6 C2.02 5.34 0.04 4.68 -2 4 C-1.01 3.67 -0.02 3.34 1 3 C0.67 2.01 0.34 1.02 0 0 Z " fill="#EAB337" transform="translate(234,78)"/>
<path d="M0 0 C0.66 0.33 1.32 0.66 2 1 C-3.94 6.94 -9.88 12.88 -16 19 C-16.66 18.67 -17.32 18.34 -18 18 C-12.31481712 11.5575694 -6.66474693 5.45466718 0 0 Z " fill="#E2EEDB" transform="translate(104,79)"/>
<path d="M0 0 C0.66 0 1.32 0 2 0 C2.33 2.64 2.66 5.28 3 8 C2.01 8.33 1.02 8.66 0 9 C-1.21869929 11.50447516 -1.21869929 11.50447516 -2 14 C-2.33 14 -2.66 14 -3 14 C-2.58846263 9.02906176 -2.20399168 4.55491614 0 0 Z " fill="#7B7A22" transform="translate(107,131)"/>
<path d="M0 0 C-0.32158729 3.00148136 -0.98153021 3.98205792 -3.1875 6.125 C-6.07903627 8.05269085 -8.66599477 9.06957994 -12 10 C-10.58426179 6.60812721 -8.95769034 4.90302459 -6 2.75 C-5.29875 2.22921875 -4.5975 1.7084375 -3.875 1.171875 C-2 0 -2 0 0 0 Z " fill="#E1A624" transform="translate(236,63)"/>
<path d="M0 0 C0.66 0 1.32 0 2 0 C2 2.25 2 2.25 1 5 C-1.52667787 6.67198768 -4.19936568 7.85805571 -7 9 C-7.99 8.34 -8.98 7.68 -10 7 C-9.34 7 -8.68 7 -8 7 C-7.67 6.01 -7.34 5.02 -7 4 C-5.03384339 2.9349985 -3.03273074 1.93166826 -1 1 C-0.67 0.67 -0.34 0.34 0 0 Z " fill="#D99D1C" transform="translate(145,88)"/>
<path d="M0 0 C0 1.98 0 3.96 0 6 C-0.33 6 -0.66 6 -1 6 C-1 4.35 -1 2.7 -1 1 C-1.99 1.33 -2.98 1.66 -4 2 C-4.28875 2.639375 -4.5775 3.27875 -4.875 3.9375 C-6.39098648 6.71680854 -8.05867273 7.07115981 -11 8 C-11.33 6.68 -11.66 5.36 -12 4 C-7.99899414 0.12023674 -5.51903037 -0.43286513 0 0 Z " fill="#F5C748" transform="translate(161,64)"/>
<path d="M0 0 C0.66 0.33 1.32 0.66 2 1 C-0.28356246 3.34138543 -2.57813374 5.67166982 -4.875 8 C-5.85146484 9.00160156 -5.85146484 9.00160156 -6.84765625 10.0234375 C-7.47285156 10.65507812 -8.09804688 11.28671875 -8.7421875 11.9375 C-9.3182373 12.52402344 -9.89428711 13.11054688 -10.48779297 13.71484375 C-12 15 -12 15 -14 15 C-13.71250124 11.65351447 -13.39008577 10.34254844 -10.8203125 8.0859375 C-9.93085938 7.52132813 -9.04140625 6.95671875 -8.125 6.375 C-5.11299657 4.4343214 -2.42568177 2.65057942 0 0 Z " fill="#CDE3C9" transform="translate(333,331)"/>
<path d="M0 0 C2.960581 2.960581 4.09965243 6.54380066 5.6875 10.375 C6.02072266 11.14328125 6.35394531 11.9115625 6.69726562 12.703125 C7.00728516 13.44820313 7.31730469 14.19328125 7.63671875 14.9609375 C8.06537231 15.97873291 8.06537231 15.97873291 8.50268555 17.01708984 C9.08933047 19.35618167 8.75721012 20.73879432 8 23 C0 5.76595745 0 5.76595745 0 0 Z " fill="#509921" transform="translate(69,270)"/>
<path d="M0 0 C0.66 0 1.32 0 2 0 C3.63508464 6.335953 3.93462112 12.13075775 1 18 C1 14.7 1 11.4 1 8 C0.34 8 -0.32 8 -1 8 C-1.04241723 5.66705225 -1.04092937 3.33297433 -1 1 C-0.67 0.67 -0.34 0.34 0 0 Z " fill="#F8CA45" transform="translate(70,170)"/>
<path d="M0 0 C0.66 0.33 1.32 0.66 2 1 C2 1.99 2 2.98 2 4 C-0.1875 6.04296875 -0.1875 6.04296875 -3 8.1875 C-3.928125 8.90292969 -4.85625 9.61835937 -5.8125 10.35546875 C-6.8953125 11.16951172 -6.8953125 11.16951172 -8 12 C-8.33 11.34 -8.66 10.68 -9 10 C-6.75014774 5.24069715 -5.04014781 2.1221675 0 0 Z " fill="#ECEDDB" transform="translate(144,93)"/>
<path d="M0 0 C0.33 0 0.66 0 1 0 C1.22634311 3.4157233 1.42792113 6.83247322 1.625 10.25 C1.68945312 11.21808594 1.75390625 12.18617188 1.8203125 13.18359375 C1.871875 14.11816406 1.9234375 15.05273438 1.9765625 16.015625 C2.02893066 16.87446289 2.08129883 17.73330078 2.13525391 18.61816406 C1.9870078 21.22879397 1.32298482 22.76943856 0 25 C-1.19166172 21.42501484 -1.1325072 18.51861586 -1.125 14.75 C-1.12757812 13.46609375 -1.13015625 12.1821875 -1.1328125 10.859375 C-1.004597 7.13358355 -0.59918558 3.67120054 0 0 Z " fill="#0D6A2A" transform="translate(101,273)"/>
<path d="M0 0 C5.94 0 11.88 0 18 0 C17.67 0.99 17.34 1.98 17 3 C11.72 3 6.44 3 1 3 C0.67 2.01 0.34 1.02 0 0 Z " fill="#D49410" transform="translate(138,123)"/>
<path d="M0 0 C0 0.99 0 1.98 0 3 C-1.45537568 3.83848804 -2.91440373 4.67063934 -4.375 5.5 C-5.59316406 6.19609375 -5.59316406 6.19609375 -6.8359375 6.90625 C-9 8 -9 8 -11 8 C-8.71283018 1.49036283 -7.11151757 -0.47410117 0 0 Z " fill="#6B7C22" transform="translate(134,121)"/>
<path d="M0 0 C0.33 0.66 0.66 1.32 1 2 C-7.415 2.495 -7.415 2.495 -16 3 C-16 2.34 -16 1.68 -16 1 C-10.14205483 -0.77830479 -6.0204673 -1.2674668 0 0 Z " fill="#F1ECCB" transform="translate(201,83)"/>
<path d="M0 0 C0.99 0 1.98 0 3 0 C4.1171875 1.703125 4.1171875 1.703125 5 4 C4.3203125 6.359375 4.3203125 6.359375 3.125 8.75 C2.73570313 9.54921875 2.34640625 10.3484375 1.9453125 11.171875 C1.63335937 11.77515625 1.32140625 12.3784375 1 13 C0.67 13 0.34 13 0 13 C0 8.71 0 4.42 0 0 Z " fill="#7E7A20" transform="translate(87,172)"/>
<path d="M0 0 C0.33 0 0.66 0 1 0 C1.1567564 7.71589817 0.67453101 15.31516461 0 23 C-0.33 23 -0.66 23 -1 23 C-1.22655901 19.91772291 -1.42803465 16.8342984 -1.625 13.75 C-1.68945312 12.87730469 -1.75390625 12.00460938 -1.8203125 11.10546875 C-1.871875 10.26113281 -1.9234375 9.41679687 -1.9765625 8.546875 C-2.02893066 7.77182617 -2.08129883 6.99677734 -2.13525391 6.19824219 C-1.9810467 3.69195763 -1.25581508 2.15160127 0 0 Z " fill="#E1BC57" transform="translate(87,161)"/>
<path d="M0 0 C1.85486952 2.78230428 2.72462112 4.84363607 3.6875 8 C3.95949219 8.86625 4.23148437 9.7325 4.51171875 10.625 C5 13 5 13 4 16 C-1.05908096 7.14223195 -1.05908096 7.14223195 -0.8125 2.375 C-0.544375 1.59125 -0.27625 0.8075 0 0 Z " fill="#0F662C" transform="translate(97,314)"/>
<path d="M0 0 C0.99 0.33 1.98 0.66 3 1 C2.32116957 4.11547441 1.25893098 6.85137721 -0.0625 9.75 C-0.60583984 10.94882813 -0.60583984 10.94882813 -1.16015625 12.171875 C-1.43730469 12.77515625 -1.71445313 13.3784375 -2 14 C-2.33 14 -2.66 14 -3 14 C-2.58846263 9.02906176 -2.20399168 4.55491614 0 0 Z " fill="#6B7623" transform="translate(93,195)"/>
<path d="M0 0 C0.66 0 1.32 0 2 0 C4.41685712 4.22949995 5.34833144 7.12335991 5 12 C4.34 12 3.68 12 3 12 C2.49166409 10.75336669 1.99368855 9.50250613 1.5 8.25 C1.2215625 7.55390625 0.943125 6.8578125 0.65625 6.140625 C0 4 0 4 0 0 Z " fill="#D99F1C" transform="translate(76,175)"/>
<path d="M0 0 C-3 3 -6 6 -9 9 C-9.66 8.67 -10.32 8.34 -11 8 C-10.34 7.34 -9.68 6.68 -9 6 C-8.835 5.154375 -8.67 4.30875 -8.5 3.4375 C-8.335 2.633125 -8.17 1.82875 -8 1 C-5.29120665 -0.35439668 -2.99066732 -0.06501451 0 0 Z " fill="#F0C241" transform="translate(108,180)"/>
<path d="M0 0 C0 3 0 3 -2.3125 5.375 C-3.199375 6.24125 -4.08625 7.1075 -5 8 C-5.515625 8.9075 -6.03125 9.815 -6.5625 10.75 C-8 13 -8 13 -10.1875 13.8125 C-10.785625 13.874375 -11.38375 13.93625 -12 14 C-8.72905967 8.54843278 -4.58146674 4.38130557 0 0 Z " fill="#DAE7D0" transform="translate(141,108)"/>
<path d="M0 0 C0.99 0 1.98 0 3 0 C2.84518205 2.70931419 2.51827919 4.46584039 0.59765625 6.4453125 C-0.89771708 7.67679642 -2.4462924 8.8429837 -4 10 C-3.52449439 8.51965236 -3.04448784 7.04074979 -2.5625 5.5625 C-2.29566406 4.73878906 -2.02882812 3.91507812 -1.75390625 3.06640625 C-1 1 -1 1 0 0 Z " fill="#727B21" transform="translate(131,104)"/>
<path d="M0 0 C-1 3 -1 3 -2.6875 4.1875 C-5.54969093 5.19313465 -7.98827908 5.13689641 -11 5 C-7.17906575 1.05170128 -5.52310605 -0.1453449 0 0 Z " fill="#C48A1E" transform="translate(198,73)"/>
<path d="M0 0 C9.17183437 0.19253851 9.17183437 0.19253851 12.5 3.4375 C12.995 4.283125 13.49 5.12875 14 6 C14.66 6.66 15.32 7.32 16 8 C12.41820734 8 11.4423393 7.15497104 8.5625 5.125 C5.77876152 3.17497 3.0795388 1.44506832 0 0 Z " fill="#F8E9C5" transform="translate(227,81)"/>
<path d="M0 0 C0.66 0 1.32 0 2 0 C3.83832664 3.10217621 4.47446226 5.39408679 4 9 C3.01 9.66 2.02 10.32 1 11 C0.67 7.37 0.34 3.74 0 0 Z " fill="#7B7020" transform="translate(78,210)"/>
<path d="M0 0 C0.66 0.33 1.32 0.66 2 1 C-1.96 4.96 -5.92 8.92 -10 13 C-10 8.41771462 -7.08388033 6.1816619 -4 3 C-1.625 1.0625 -1.625 1.0625 0 0 Z " fill="#2C694D" transform="translate(205,204)"/>
<path d="M0 0 C0.66 0.33 1.32 0.66 2 1 C0.24009216 6.91969002 -2.39694605 12.41634992 -5 18 C-5.33 18 -5.66 18 -6 18 C-6.37573283 13.61645032 -5.30172758 11.66571429 -3 8 C-1.90680874 5.36058327 -0.95852045 2.69298602 0 0 Z " fill="#D5D7B1" transform="translate(96,157)"/>
<path d="M0 0 C0 0.99 0 1.98 0 3 C-1.62463842 3.05395478 -3.24978541 3.09277195 -4.875 3.125 C-5.77992188 3.14820312 -6.68484375 3.17140625 -7.6171875 3.1953125 C-10 3 -10 3 -12 1 C-8.0186217 -0.3271261 -4.14954773 -0.06915913 0 0 Z " fill="#787B1E" transform="translate(188,86)"/>
<path d="M0 0 C2.36253009 2.36253009 3.037848 4.31227271 4.1875 7.4375 C4.55230469 8.40558594 4.91710937 9.37367187 5.29296875 10.37109375 C6 13 6 13 5 16 C3.9615789 14.28133783 2.94485365 12.54955402 1.9375 10.8125 C1.36902344 9.84957031 0.80054688 8.88664062 0.21484375 7.89453125 C-1.13815174 4.67083459 -1.04769518 3.27479579 0 0 Z " fill="#84BB51" transform="translate(338,107)"/>
<path d="M0 0 C1.98567708 0.09765625 3.97135417 0.1953125 5.95703125 0.29296875 C5.95703125 1.28296875 5.95703125 2.27296875 5.95703125 3.29296875 C2.32703125 3.29296875 -1.30296875 3.29296875 -5.04296875 3.29296875 C-2.04296875 0.29296875 -2.04296875 0.29296875 0 0 Z " fill="#B47D16" transform="translate(155.04296875,98.70703125)"/>
<path d="M0 0 C1.32 0 2.64 0 4 0 C3.67 1.65 3.34 3.3 3 5 C0.69 5 -1.62 5 -4 5 C-2.25 2.5 -2.25 2.5 0 0 Z " fill="#87AD1F" transform="translate(196,77)"/>
<path d="M0 0 C4.08718695 -0.24042276 7.17679443 0.57741188 11 2 C10.67 3.32 10.34 4.64 10 6 C6.40992874 4.66654496 3.20429093 3.1056769 0 1 C0 0.67 0 0.34 0 0 Z " fill="#358122" transform="translate(130,375)"/>
<path d="M0 0 C1.32 0 2.64 0 4 0 C3.65120368 3.25543229 2.97866739 4.01873107 0.4375 6.25 C-0.366875 6.8275 -1.17125 7.405 -2 8 C-1.125 2.25 -1.125 2.25 0 0 Z " fill="#727F26" transform="translate(106,155)"/>
<path d="M0 0 C-1.24976756 3.65316671 -1.67098753 4.78065836 -5 7 C-5.99 6.67 -6.98 6.34 -8 6 C-6.98565881 3.46414701 -6.34981128 2.21863205 -4 0.75 C-2 0 -2 0 0 0 Z " fill="#BD8823" transform="translate(169,77)"/>
<path d="M0 0 C0.33 0.66 0.66 1.32 1 2 C1.61875 2.309375 2.2375 2.61875 2.875 2.9375 C5.05810535 4.02905268 6.37010468 5.20711515 8 7 C6.25 7.75 6.25 7.75 4 8 C1.75 6.3125 1.75 6.3125 0 4 C0 2.68 0 1.36 0 0 Z " fill="#E3A71F" transform="translate(161,99)"/>
<path d="M0 0 C0.66 0.33 1.32 0.66 2 1 C2 1.66 2 2.32 2 3 C4.31 3 6.62 3 9 3 C9 3.66 9 4.32 9 5 C6.69 5 4.38 5 2 5 C1.67 5.99 1.34 6.98 1 8 C0.87625 7.195625 0.7525 6.39125 0.625 5.5625 C0.315625 4.2940625 0.315625 4.2940625 0 3 C-0.66 2.67 -1.32 2.34 -2 2 C-1.34 2 -0.68 2 0 2 C0 1.34 0 0.68 0 0 Z " fill="#F1C246" transform="translate(216,81)"/>
<path d="M0 0 C1.32 0 2.64 0 4 0 C6.25 3 6.25 3 8 6 C7.67 6.66 7.34 7.32 7 8 C5.8274869 7.04882866 4.66212985 6.08882991 3.5 5.125 C2.8503125 4.59132813 2.200625 4.05765625 1.53125 3.5078125 C1.0259375 3.01023437 0.520625 2.51265625 0 2 C0 1.34 0 0.68 0 0 Z " fill="#1C702B" transform="translate(129,369)"/>
<path d="M0 0 C1.65 0 3.3 0 5 0 C5.33 0.66 5.66 1.32 6 2 C7.89533342 2.46523063 7.89533342 2.46523063 10.0625 2.625 C11.361875 2.74875 12.66125 2.8725 14 3 C14 3.33 14 3.66 14 4 C12.41676312 4.027193 10.83338938 4.04648306 9.25 4.0625 C7.92742187 4.07990234 7.92742187 4.07990234 6.578125 4.09765625 C4.2181162 4.00826198 2.25501476 3.66912821 0 3 C0 2.01 0 1.02 0 0 Z " fill="#D3A63A" transform="translate(117,150)"/>
<path d="M0 0 C-0.625 1.875 -0.625 1.875 -2 4 C-5.125 5.25 -5.125 5.25 -8 6 C-7.75 4.125 -7.75 4.125 -7 2 C-4.41847698 0.27898465 -3.15081975 0 0 0 Z " fill="#D2981B" transform="translate(169,118)"/>
<path d="M0 0 C1.62463842 -0.05395478 3.24978541 -0.09277195 4.875 -0.125 C5.77992188 -0.14820313 6.68484375 -0.17140625 7.6171875 -0.1953125 C10 0 10 0 12 2 C10.37585622 2.19477739 8.75063577 2.38059458 7.125 2.5625 C6.22007812 2.66691406 5.31515625 2.77132813 4.3828125 2.87890625 C2 3 2 3 0 2 C0 1.34 0 0.68 0 0 Z " fill="#BAD6B8" transform="translate(283,372)"/>
<path d="M0 0 C0.51355204 2.05420818 1.02223794 4.11118972 1.4375 6.1875 C1.623125 6.785625 1.80875 7.38375 2 8 C2.66 8.33 3.32 8.66 4 9 C3.34 9.66 2.68 10.32 2 11 C0.68 10.34 -0.64 9.68 -2 9 C-1.34 6.03 -0.68 3.06 0 0 Z " fill="#8F9F58" transform="translate(94,186)"/>
<path d="M0 0 C-1.07401108 2.91517292 -1.77810176 4.77810176 -4 7 C-5.66666667 7 -7.33333333 7 -9 7 C-7.88121617 5.82737096 -6.75476949 4.66204862 -5.625 3.5 C-4.68527344 2.52546875 -4.68527344 2.52546875 -3.7265625 1.53125 C-2 0 -2 0 0 0 Z " fill="#D9E9D7" transform="translate(288,340)"/>
<path d="M0 0 C0 4.29 0 8.58 0 13 C-2.1991413 8.60171741 -2.51855059 5.81449408 -3 1 C-1 0 -1 0 0 0 Z " fill="#DBE8DE" transform="translate(92,270)"/>
<path d="M0 0 C0.33 0 0.66 0 1 0 C1.33 4.29 1.66 8.58 2 13 C-0.26568725 10.73431275 -0.55280451 9.56766015 -1.25 6.5 C-1.44078125 5.7059375 -1.6315625 4.911875 -1.828125 4.09375 C-1.88484375 3.4028125 -1.9415625 2.711875 -2 2 C-1.34 1.34 -0.68 0.68 0 0 Z " fill="#D8E6D4" transform="translate(80,264)"/>
<path d="M0 0 C0.66 0 1.32 0 2 0 C2 0.99 2 1.98 2 3 C2.66 3 3.32 3 4 3 C3.6875 4.9375 3.6875 4.9375 3 7 C2.01 7.33 1.02 7.66 0 8 C0 5.36 0 2.72 0 0 Z " fill="#FACE4D" transform="translate(82,146)"/>
<path d="M0 0 C0.66 0.33 1.32 0.66 2 1 C1.34 1.66 0.68 2.32 0 3 C0 4.32 0 5.64 0 7 C-1.98 7.33 -3.96 7.66 -6 8 C-2.25 2.25 -2.25 2.25 0 0 Z " fill="#F6CD51" transform="translate(122,141)"/>
<path d="M0 0 C3.125 0.375 3.125 0.375 6 1 C6.33 2.32 6.66 3.64 7 5 C4.03 4.01 1.06 3.02 -2 2 C-1.34 1.34 -0.68 0.68 0 0 Z " fill="#E9B233" transform="translate(168,106)"/>
<path d="M0 0 C0.66 0 1.32 0 2 0 C3.32421875 1.6796875 3.32421875 1.6796875 4.6875 3.875 C5.14511719 4.59429687 5.60273437 5.31359375 6.07421875 6.0546875 C6.37972656 6.69664062 6.68523437 7.33859375 7 8 C6.67 8.66 6.34 9.32 6 10 C4.99106869 8.90398831 3.99311775 7.79786082 3 6.6875 C2.1646875 5.76517578 2.1646875 5.76517578 1.3125 4.82421875 C0 3 0 3 0 0 Z " fill="#C7DEBC" transform="translate(79,324)"/>
<path d="M0 0 C1.32 0.33 2.64 0.66 4 1 C2 3 0 5 -2 7 C-2.99 6.67 -3.98 6.34 -5 6 C-3.35 4.02 -1.7 2.04 0 0 Z " fill="#EFE9D5" transform="translate(169,78)"/>
<path d="M0 0 C0 3.39593478 -0.52165948 4.06619881 -2.5 6.6875 C-2.9640625 7.31011719 -3.428125 7.93273437 -3.90625 8.57421875 C-4.2671875 9.04472656 -4.628125 9.51523438 -5 10 C-5.33 9.01 -5.66 8.02 -6 7 C-4.78515625 5.17578125 -4.78515625 5.17578125 -3.0625 3.3125 C-2.49660156 2.68988281 -1.93070312 2.06726563 -1.34765625 1.42578125 C-0.90292969 0.95527344 -0.45820312 0.48476562 0 0 Z " fill="#D9DFBE" transform="translate(115,126)"/>
<path d="M0 0 C0.66 0.33 1.32 0.66 2 1 C-0.625 5.875 -0.625 5.875 -4 7 C-3.6875 4.625 -3.6875 4.625 -3 2 C-2.01 1.34 -1.02 0.68 0 0 Z " fill="#DAE9D8" transform="translate(323,339)"/>
<path d="M0 0 C0.66 0.33 1.32 0.66 2 1 C-0.64 3.64 -3.28 6.28 -6 9 C-6 6 -6 6 -3.5625 3.375 C-2.716875 2.59125 -1.87125 1.8075 -1 1 C-0.67 0.67 -0.34 0.34 0 0 Z " fill="#6FB247" transform="translate(158,212)"/>
<path d="M0 0 C0.99 0 1.98 0 3 0 C2.49396008 2.16874252 2.00016187 3.99967627 1 6 C0.01 5.67 -0.98 5.34 -2 5 C-1.34 3.35 -0.68 1.7 0 0 Z " fill="#C88F16" transform="translate(89,166)"/>
<path d="M0 0 C0.33 0.66 0.66 1.32 1 2 C-2.63 1.67 -6.26 1.34 -10 1 C-10 0.67 -10 0.34 -10 0 C-6.33291043 -0.94296589 -3.64653273 -1.11421833 0 0 Z " fill="#FCD355" transform="translate(186,100)"/>
<path d="M0 0 C1.60875 0.3403125 1.60875 0.3403125 3.25 0.6875 C3.25 1.0175 3.25 1.3475 3.25 1.6875 C-0.38 2.0175 -4.01 2.3475 -7.75 2.6875 C-3.75 -0.3125 -3.75 -0.3125 0 0 Z " fill="#E5E8C9" transform="translate(202.75,74.3125)"/>
<path d="M0 0 C0.66 0 1.32 0 2 0 C2.1875 2.375 2.1875 2.375 2 5 C1.01 5.66 0.02 6.32 -1 7 C-2 4 -2 4 -1.0625 1.8125 C-0.5365625 0.9153125 -0.5365625 0.9153125 0 0 Z " fill="#CB9525" transform="translate(129,165)"/>
<path d="M0 0 C3.96 0 7.92 0 12 0 C11.01 0.495 11.01 0.495 10 1 C10 1.66 10 2.32 10 3 C6.7 2.67 3.4 2.34 0 2 C0 1.34 0 0.68 0 0 Z " fill="#E5BF5E" transform="translate(155,97)"/>
<path d="M0 0 C2.31 0.33 4.62 0.66 7 1 C7 1.66 7 2.32 7 3 C4.36 2.67 1.72 2.34 -1 2 C-0.67 1.34 -0.34 0.68 0 0 Z " fill="#FDD862" transform="translate(198,86)"/>
<path d="M0 0 C0.99 1.32 1.98 2.64 3 4 C2.67 4.66 2.34 5.32 2 6 C1.34 6 0.68 6 0 6 C-0.33 6.99 -0.66 7.98 -1 9 C-0.67 6.03 -0.34 3.06 0 0 Z " fill="#D5A12C" transform="translate(78,204)"/>
<path d="M0 0 C0.66 0 1.32 0 2 0 C1.67 1.98 1.34 3.96 1 6 C0.01 6 -0.98 6 -2 6 C-1.34 4.02 -0.68 2.04 0 0 Z " fill="#EBB123" transform="translate(119,113)"/>
<path d="M0 0 C3.68754757 0.49831724 5.60490662 1.10067643 8 4 C6.02 4.33 4.04 4.66 2 5 C2.33 4.34 2.66 3.68 3 3 C2.01 2.01 1.02 1.02 0 0 Z " fill="#F3C241" transform="translate(208,87)"/>
</svg>
